<?xml version="1.0" encoding="utf-8"?>
<!-- Generator: Adobe Illustrator 16.0.0, SVG Export Plug-In . SVG Version: 6.00 Build 0)  -->
<!DOCTYPE svg PUBLIC "-//W3C//DTD SVG 1.1//EN" "http://www.w3.org/Graphics/SVG/1.1/DTD/svg11.dtd">
<svg version="1.1" id="Camada_1" xmlns="http://www.w3.org/2000/svg" xmlns:xlink="http://www.w3.org/1999/xlink" x="0px" y="0px"
	 width="32.938px" height="34.993px" viewBox="0 -1.946 32.938 34.993" enable-background="new 0 -1.946 32.938 34.993"
	 xml:space="preserve">
<g>
	<polygon fill="#AF38C5" points="1.938,2.109 1.938,33.047 16.313,26.797 31,33.047 31,2.109 	"/>
	<rect x="0" fill="#E6962E" width="32.938" height="2.109"/>
	<g>
		<path fill="#FFFFFF" d="M11.003,15.992c0-0.687-0.005-1.372,0.001-2.059c0.007-0.583,0.058-1.162,0.251-1.719
			c0.346-0.99,1.039-1.621,2.022-1.949c0.538-0.18,1.101-0.227,1.661-0.23c1.349-0.006,2.694-0.006,4.04,0
			c0.581,0.005,1.156,0.054,1.712,0.236c1.022,0.337,1.66,1.05,1.998,2.052c0.146,0.437,0.211,0.889,0.215,1.35
			c0.01,1.34,0.019,2.68,0.02,4.019c0.001,0.504-0.015,1.007-0.107,1.504c-0.267,1.43-1.132,2.279-2.523,2.623
			c-0.427,0.104-0.866,0.134-1.305,0.135c-1.354,0.006-2.705,0.006-4.061,0c-0.555-0.004-1.108-0.051-1.645-0.221
			c-1.033-0.326-1.7-1.021-2.045-2.039c-0.171-0.5-0.227-1.02-0.23-1.543C10.998,17.432,11.004,16.712,11.003,15.992L11.003,15.992z
			 M21.87,15.8c0-0.394,0.005-0.786-0.002-1.178c-0.01-0.549-0.021-1.096-0.114-1.641c-0.151-0.871-0.721-1.592-1.691-1.761
			c-0.527-0.092-1.063-0.125-1.6-0.131c-0.925-0.007-1.85-0.006-2.773-0.002c-0.588,0.002-1.175,0.013-1.758,0.116
			c-0.782,0.139-1.515,0.649-1.717,1.562c-0.111,0.502-0.146,1.014-0.15,1.526c-0.012,1.093-0.02,2.184-0.011,3.273
			c0.004,0.553,0.023,1.104,0.164,1.645c0.195,0.752,0.638,1.271,1.389,1.494c0.502,0.148,1.024,0.178,1.543,0.188
			c1.045,0.021,2.092,0.012,3.138,0.01c0.576-0.002,1.154-0.014,1.728-0.119c0.859-0.163,1.551-0.73,1.719-1.678
			c0.103-0.584,0.127-1.174,0.137-1.768C21.875,16.824,21.87,16.312,21.87,15.8z"/>
		<path fill="#FFFFFF" d="M16.936,19.063c-1.596,0.031-3.07-1.297-3.078-3.061c-0.004-1.579,1.286-3.073,3.075-3.083
			c1.759-0.009,3.076,1.46,3.074,3.074C20.005,17.611,18.691,19.085,16.936,19.063z M16.932,13.988
			c-1.129,0.001-1.996,0.88-2.011,2.008c-0.014,1.126,0.983,1.997,2.019,1.98c1.104-0.015,2-0.891,2.004-1.98
			C18.945,14.88,18.05,13.988,16.932,13.988z"/>
		<path fill="#FFFFFF" d="M20.144,13.51c-0.377,0.001-0.726-0.345-0.728-0.719c0-0.381,0.348-0.73,0.728-0.729
			c0.373,0.003,0.724,0.354,0.724,0.725C20.866,13.158,20.516,13.509,20.144,13.51z"/>
	</g>
</g>
</svg>
