<?xml version="1.0" encoding="utf-8"?>
<!-- Generator: Adobe Illustrator 16.0.0, SVG Export Plug-In . SVG Version: 6.00 Build 0)  -->
<!DOCTYPE svg PUBLIC "-//W3C//DTD SVG 1.1//EN" "http://www.w3.org/Graphics/SVG/1.1/DTD/svg11.dtd">
<svg version="1.1" id="Camada_1" xmlns="http://www.w3.org/2000/svg" xmlns:xlink="http://www.w3.org/1999/xlink" x="0px" y="0px"
	 width="32.938px" height="34.993px" viewBox="0 -1.946 32.938 34.993" enable-background="new 0 -1.946 32.938 34.993"
	 xml:space="preserve">
<polygon fill="#C93E50" points="1.938,2.109 1.938,33.047 16.313,26.797 31,33.047 31,2.109 "/>
<rect x="0" fill="#E6962E" width="32.938" height="2.109"/>
<path fill="#FFFFFF" d="M19.222,14.571c0.073,0.388,0.112,0.794,0.112,1.218c0,3.313-2.218,5.669-5.566,5.669
	c-3.204,0-5.799-2.597-5.799-5.799c0-3.204,2.595-5.799,5.799-5.799c1.565,0,2.874,0.576,3.878,1.511l-1.635,1.635v-0.004
	c-0.608-0.579-1.381-0.877-2.243-0.877c-1.914,0-3.469,1.616-3.469,3.53c0,1.913,1.555,3.534,3.469,3.534
	c1.736,0,2.918-0.994,3.16-2.356h-3.16v-2.262H19.222z M23.553,14.934v-1.812h-1.449v1.812h-1.813v1.45h1.813v1.812h1.449v-1.812
	h1.813v-1.45H23.553z"/>
</svg>
