<?xml version="1.0" encoding="utf-8"?>
<!-- Generator: Adobe Illustrator 16.0.0, SVG Export Plug-In . SVG Version: 6.00 Build 0)  -->
<!DOCTYPE svg PUBLIC "-//W3C//DTD SVG 1.1//EN" "http://www.w3.org/Graphics/SVG/1.1/DTD/svg11.dtd">
<svg version="1.1" id="Camada_1" xmlns="http://www.w3.org/2000/svg" xmlns:xlink="http://www.w3.org/1999/xlink" x="0px" y="0px"
	 width="363.832px" height="260.861px" viewBox="0 0 363.832 260.861" enable-background="new 0 0 363.832 260.861"
	 xml:space="preserve">
<g id="Camada_2">
</g>
<path fill="#AD9C86" d="M272.619,241.103c0,0,40.211,1.946,86.598,19.76l-30.133-35.317l34.748-23.24c0,0-8.41-9.997-86.476-18.939
	L272.619,241.103z"/>
<g>
	<g>
		<path fill="none" stroke="#FFFFFF" stroke-width="0.5389" stroke-miterlimit="10" d="M272.917,236.802c0,0,0.735-0.004,2.15,0.056
			"/>
		<path fill="none" stroke="#FFFFFF" stroke-width="0.5389" stroke-miterlimit="10" stroke-dasharray="4.414,2.207" d="
			M277.268,236.976c9.714,0.62,35.063,3.445,69.61,16.322"/>
		<path fill="none" stroke="#FFFFFF" stroke-width="0.5389" stroke-miterlimit="10" d="M347.923,253.689
			c0.668,0.251,1.341,0.507,2.016,0.767l-1.396-1.643"/>
		
			<line fill="none" stroke="#FFFFFF" stroke-width="0.5389" stroke-miterlimit="10" stroke-dasharray="4.5024,2.2512" x1="347.083" y1="251.099" x2="325.933" y2="226.235"/>
		<polyline fill="none" stroke="#FFFFFF" stroke-width="0.5389" stroke-miterlimit="10" points="325.203,225.378 323.807,223.736 
			325.601,222.542 		"/>
		
			<line fill="none" stroke="#FFFFFF" stroke-width="0.5389" stroke-miterlimit="10" stroke-dasharray="4.1116,2.0558" x1="327.312" y1="221.402" x2="352.123" y2="204.879"/>
		<path fill="none" stroke="#FFFFFF" stroke-width="0.5389" stroke-miterlimit="10" d="M352.979,204.309l1.794-1.194
			c0,0,0.032-0.566-1.408-1.567"/>
		<path fill="none" stroke="#FFFFFF" stroke-width="0.5389" stroke-miterlimit="10" stroke-dasharray="4.4644,2.2322" d="
			M351.434,200.435c-6.056-3.003-23.093-8.194-71.019-13.826"/>
		<path fill="none" stroke="#FFFFFF" stroke-width="0.5389" stroke-miterlimit="10" d="M279.298,186.478
			c-0.707-0.083-1.42-0.165-2.141-0.248"/>
	</g>
</g>
<path fill="#AD9C86" d="M119.296,141.658c0,0-75.206,4.423-119.296-5.473L35.672,166L5.523,194.937c0,0,51.048,10.26,119.333,2.488
	L119.296,141.658z"/>
<g>
	<g>
		<path fill="none" stroke="#FFFFFF" stroke-width="0.5389" stroke-miterlimit="10" d="M119.739,145.946c0,0-0.75,0.051-2.147,0.127
			"/>
		<path fill="none" stroke="#FFFFFF" stroke-width="0.5389" stroke-miterlimit="10" stroke-dasharray="4.2905,2.1452" d="
			M115.454,146.184c-14.322,0.705-61.87,2.345-101.635-4.394"/>
		<path fill="none" stroke="#FFFFFF" stroke-width="0.5389" stroke-miterlimit="10" d="M12.752,141.606
			c-0.709-0.123-1.416-0.249-2.12-0.378l1.66,1.375"/>
		
			<line fill="none" stroke="#FFFFFF" stroke-width="0.5389" stroke-miterlimit="10" stroke-dasharray="4.415,2.2075" x1="13.992" y1="144.013" x2="38.634" y2="164.44"/>
		<polyline fill="none" stroke="#FFFFFF" stroke-width="0.5389" stroke-miterlimit="10" points="39.484,165.145 41.144,166.521 
			39.597,168.022 		"/>
		
			<line fill="none" stroke="#FFFFFF" stroke-width="0.5389" stroke-miterlimit="10" stroke-dasharray="4.1372,2.0686" x1="38.113" y1="169.464" x2="16.598" y2="190.362"/>
		<path fill="none" stroke="#FFFFFF" stroke-width="0.5389" stroke-miterlimit="10" d="M15.856,191.083l-1.546,1.502
			c0,0,0.714,0.166,2.106,0.437"/>
		<path fill="none" stroke="#FFFFFF" stroke-width="0.5389" stroke-miterlimit="10" stroke-dasharray="4.3409,2.1704" d="
			M18.545,193.418c12.007,2.14,48.925,7.271,102.784,1.505"/>
		<path fill="none" stroke="#FFFFFF" stroke-width="0.5389" stroke-miterlimit="10" d="M122.419,194.806
			c0.711-0.078,1.425-0.158,2.142-0.239"/>
	</g>
</g>
<polygon fill="#998675" points="37.041,183.866 97.867,141.229 91.394,197.939 "/>
<g>
	<g>
		<path fill="#FFFFFF" d="M68.343,127.203c-2.625,0-5.125-1.148-6.836-3.147c-2.451,0.781-4.996,1.295-7.585,1.508
			c-0.898,0.074-1.814,0.111-2.724,0.111c-15.471,0-29.621-10.497-32.914-24.416c-1.114-4.709,1.695-9.456,6.359-10.746
			c2.1-0.581,3.941-1.089,5.558-1.535c-6.74-4.086-12.418-10.065-13.232-19.969c-0.695-8.456,2.274-16.724,8.362-23.28
			c5.711-6.15,13.705-10.065,21.931-10.743c0.889-0.072,1.794-0.109,2.691-0.109c14.399,0,27.444,9.243,31.53,21.915l6.225-16.813
			c1.214-3.278,4.218-5.558,7.703-5.845l8.583-0.706c0.247-0.02,0.494-0.03,0.739-0.03c3.201,0,6.185,1.706,7.8,4.514l8.792,15.288
			c1.747-4.076,4.106-7.915,7.04-11.4c7.806-9.273,18.741-14.925,30.792-15.917c1.238-0.103,2.493-0.153,3.729-0.153
			c23.381,0,43.201,18.306,45.123,41.672c2.041,24.833-16.543,46.701-41.429,48.748c-1.249,0.104-2.515,0.155-3.762,0.155
			c-3.307,0-6.567-0.363-9.731-1.062c-0.116,0.294-0.249,0.583-0.398,0.866c-1.432,2.729-4.16,4.534-7.231,4.787l-18.998,1.563
			c-0.248,0.02-0.495,0.029-0.74,0.029c-3.204,0-6.191-1.71-7.804-4.521l-2.368-4.127l-18.156,1.493l-1.592,4.384
			c-1.201,3.305-4.217,5.608-7.722,5.897l-18.998,1.562C68.835,127.193,68.588,127.203,68.343,127.203z M162.895,62.691
			c-0.234,0-0.47,0.011-0.707,0.029c-4.519,0.372-7.89,4.395-7.514,8.966c0.352,4.287,3.96,7.646,8.214,7.646
			c0.22,0,0.441-0.009,0.664-0.027c4.572-0.376,7.986-4.402,7.61-8.974C170.803,65.976,167.249,62.691,162.895,62.691z
			 M74.467,70.44c0.507,0.41,1,0.848,1.478,1.313l0.724-1.956c-0.3,0.116-0.609,0.217-0.927,0.302
			C75.307,70.215,74.881,70.329,74.467,70.44z"/>
		<path fill="#FFFFFF" d="M162.888,34.727c18.692,0.002,34.593,14.453,36.152,33.41c1.642,19.962-13.235,37.398-33.198,39.04
			c-1.016,0.083-2.023,0.125-3.024,0.125c-12.194,0-23.158-6.093-29.728-15.599l11.63,20.221l-18.998,1.563l-5.213-9.086
			l-29.605,2.436l-3.563,9.808l-18.998,1.563l5.908-15.958c-3.69,7.802-12.149,13.614-21.068,14.349
			c-0.661,0.054-1.322,0.081-1.986,0.081c-10.781,0-21.688-7.06-24.155-17.488c16.139-4.463,16.5-4.5,16.5-4.5
			c0.241,2.927,4.695,4.896,7.725,4.896c0.177,0,0.35-0.007,0.516-0.021c3.01-0.248,8.468-3.132,8.222-6.132
			c-0.247-3-5.538-3.738-8.337-4.867c-11.86-4.783-24.71-7.904-25.729-20.292C24.921,55.888,35.571,44.977,48,43.955
			c0.652-0.055,1.303-0.08,1.954-0.08c10.799,0.001,21.288,7.248,23.458,17.53c-15.285,4.096-16.398,4.222-16.477,4.222
			c-0.005,0-0.006,0-0.006,0c-0.234-2.843-4.108-4.95-7.075-4.95c-0.163,0-0.322,0.006-0.479,0.019
			c-3.01,0.248-6.797,3.093-6.55,6.092c0.247,3,4.489,4.248,7.449,4.842c7.131,1.436,15.34,2.149,19.848,7.04
			c3.426,3.615,5.57,8.31,6.008,13.633c0.185,2.242-0.044,4.435-0.614,6.529l20.633-55.729l8.583-0.706l25.396,44.156
			c-1.795-3.817-2.952-8.017-3.318-12.477c-1.642-19.962,13.123-37.584,33.085-39.227C160.901,34.767,161.896,34.727,162.888,34.727
			 M162.888,88.333c0.463,0,0.931-0.02,1.401-0.059c9.547-0.784,16.619-9.229,15.842-18.681
			c-0.745-9.062-8.306-15.902-17.236-15.902c-0.478,0-0.96,0.021-1.445,0.061c-9.451,0.776-16.531,9.126-15.746,18.673
			C146.442,81.405,154.025,88.333,162.888,88.333 M97.014,90.215l14.754-1.213l-8.637-15.31L97.014,90.215 M162.889,16.727h-0.006
			c-1.479,0-2.981,0.063-4.463,0.185c-14.815,1.218-27.76,8.34-36.728,18.871l-1.357-2.36c-3.229-5.613-9.198-9.026-15.599-9.026
			c-0.491,0-0.984,0.021-1.479,0.062l-8.583,0.705c-6.97,0.572-12.977,5.131-15.405,11.689l-0.128,0.348
			c-1.138-1.042-2.343-2.028-3.611-2.954c-7.394-5.397-16.477-8.37-25.575-8.37c-1.141,0-2.295,0.047-3.43,0.141
			c-10.438,0.858-20.566,5.812-27.788,13.588C11.021,47.914,7.108,58.9,8,69.747c0.393,4.784,1.883,10.941,6.179,16.847
			c-4.176,4.272-6.123,10.521-4.652,16.737c2.184,9.232,7.921,17.493,16.153,23.256c7.45,5.216,16.512,8.088,25.519,8.088
			c1.155,0,2.319-0.047,3.461-0.142c1.617-0.134,3.221-0.359,4.803-0.675c2.68,1.521,5.736,2.345,8.88,2.345
			c0.491,0,0.983-0.021,1.478-0.062l18.998-1.562c6.635-0.546,12.394-4.702,15.027-10.75l6.773-0.558
			c3.32,5.127,9.016,8.212,15.102,8.212c0.491,0,0.984-0.02,1.48-0.061l18.998-1.563c4.137-0.34,7.964-2.09,10.896-4.864
			c1.891,0.2,3.801,0.303,5.726,0.303c1.493,0,3.006-0.063,4.5-0.185c29.833-2.453,52.11-28.677,49.661-58.454
			c-1.123-13.661-7.305-26.301-17.406-35.588C189.512,21.823,176.484,16.728,162.889,16.727L162.889,16.727z"/>
	</g>
	<g>
		<path fill="#FFFFFF" d="M87.359,52.55c-0.728,0-1.458-0.088-2.178-0.268l-3.584-0.895c-4.427-1.104-7.327-5.347-6.749-9.872
			l0.218-1.709c2.107-16.507,13.392-17.79,16.8-17.79c1.529,0,3.125,0.205,4.742,0.607c2.432,0.605,4.7,1.587,6.419,2.351
			c0.638-0.973,1.465-1.823,2.447-2.495c1.51-1.031,3.283-1.569,5.079-1.569c0.728,0,1.459,0.088,2.178,0.268l3.323,0.829
			c4.486,1.119,7.394,5.456,6.727,10.03c-0.625,4.288-2.865,9.899-6.346,13.352c-0.138,0.157-0.282,0.312-0.432,0.46
			c-2.695,2.68-6.193,4.096-10.115,4.096c-1.487,0-3.036-0.211-4.606-0.627c-2.302-0.581-4.284-1.386-5.731-2.04
			c-0.674,1.48-1.743,2.767-3.113,3.703C90.928,52.013,89.155,52.55,87.359,52.55z"/>
		<path fill="#FFFFFF" d="M110.553,29.91l3.323,0.829c-0.838,5.75-4.198,8.801-4.279,8.801c-0.007,0,0.012-0.025,0.062-0.075
			c-0.959,0.953-2.207,1.479-3.771,1.479c-0.716,0-1.498-0.109-2.349-0.34c-1.761-0.438-3.358-1.089-4.881-1.805
			c-1.587-0.731-3.055-1.35-4.619-1.74c-0.701-0.175-1.351-0.265-1.947-0.265c-2.509,0-4.075,1.603-4.545,5.289l-0.188,1.466
			l-3.584-0.894l0.218-1.71c0.742-5.813,3.056-9.931,7.872-9.93c0.787,0,1.641,0.11,2.565,0.34c1.76,0.438,3.542,1.22,5.261,1.984
			c1.717,0.764,3.436,1.529,5.195,1.967c0.437,0.109,0.915,0.189,1.403,0.189C108.063,35.497,109.974,34.445,110.553,29.91
			 M110.554,11.91c-3.301,0-6.563,0.908-9.415,2.658c-0.756-0.244-1.543-0.475-2.356-0.678c-2.327-0.58-4.654-0.874-6.916-0.874
			c-10.358-0.001-23.311,6.717-25.728,25.651l-0.218,1.708c-1.155,9.052,4.645,17.536,13.499,19.744l3.584,0.894
			c1.438,0.359,2.901,0.536,4.356,0.536c3.591,0,7.137-1.075,10.158-3.14c0.269-0.185,0.531-0.374,0.788-0.571
			c0.243,0.066,0.485,0.13,0.729,0.192c2.303,0.604,4.608,0.911,6.855,0.911c5.576,0,10.824-1.892,14.981-5.364
			c6.351-4.986,9.863-13.692,10.818-20.244c1.333-9.15-4.482-17.822-13.455-20.062l-3.323-0.829
			C113.472,12.087,112.009,11.91,110.554,11.91L110.554,11.91z"/>
	</g>
	<g>
		<path fill="#FFFFFF" d="M98.177,193.159c-3.683,0-16.401-0.569-25.43-7.887c-1.881-1.524-3.068-3.743-3.294-6.153
			c-0.225-2.411,0.531-4.812,2.097-6.658c2.097-2.474,6.374-7.517,12.56-15.021c1.533-1.858,3.746-3.025,6.146-3.239
			c0.267-0.024,0.534-0.036,0.8-0.036c1.965,0,3.879,0.644,5.448,1.837c0.13,0.016,0.329,0.031,0.609,0.031
			c0.143,0,0.29-0.005,0.441-0.012l-3.639-44.257c-0.195-2.379,0.562-4.738,2.106-6.558c1.543-1.821,3.748-2.953,6.126-3.149
			l18.998-1.562c0.25-0.021,0.5-0.031,0.748-0.031c4.636,0,8.573,3.56,8.959,8.263l0.259,3.156
			c7.077-6.352,16.188-10.529,26.345-11.364c1.238-0.102,2.493-0.152,3.73-0.152c23.381,0,43.201,18.305,45.121,41.672
			c0.991,12.05-2.778,23.756-10.613,32.961c-7.821,9.188-18.766,14.795-30.816,15.786c-1.249,0.103-2.515,0.154-3.761,0.154h-0.001
			c-12.498,0-23.793-4.975-31.958-13.149c-5.917,8.558-16.087,14.244-28.846,15.294C99.703,193.134,98.985,193.159,98.177,193.159z
			 M161.192,137.331c-0.234,0-0.47,0.01-0.707,0.028c-4.52,0.371-7.89,4.395-7.514,8.967c0.353,4.286,3.96,7.646,8.214,7.646
			c0.22,0,0.441-0.009,0.664-0.027c4.572-0.376,7.986-4.401,7.61-8.975C169.101,140.615,165.547,137.331,161.192,137.331z"/>
		<path fill="#FFFFFF" d="M161.186,109.366c18.693,0,34.593,14.451,36.151,33.408c1.643,19.962-13.234,37.398-33.197,39.04
			c-1.016,0.083-2.024,0.125-3.024,0.125c-18.635,0-34.393-14.228-35.998-33.125l0.682,8.288
			c1.082,16.707-12.146,25.854-26.226,27.012c-0.317,0.025-0.792,0.045-1.396,0.045c-3.983,0-13.53-0.826-19.763-5.878
			c2.124-2.506,6.373-7.515,12.64-15.117c1.335,1.133,3.203,1.868,6.058,1.868c0.492,0,1.013-0.022,1.565-0.067
			c4.918-0.405,8.329-3.792,7.893-9.096l-3.687-44.843l18.998-1.562l3.219,39.146c-1.583-19.92,13.164-37.484,33.092-39.122
			C159.198,109.407,160.194,109.366,161.186,109.366 M161.185,162.972c0.464,0,0.931-0.019,1.401-0.058
			c9.547-0.785,16.619-9.23,15.842-18.683c-0.745-9.062-8.305-15.901-17.236-15.901c-0.478,0-0.96,0.02-1.445,0.06
			c-9.451,0.777-16.531,9.125-15.746,18.673C144.74,156.044,152.322,162.972,161.185,162.972 M161.186,91.366
			c-1.482,0-2.985,0.062-4.468,0.184c-7.631,0.627-14.77,2.826-21.124,6.252c-3.325-3.904-8.27-6.338-13.692-6.338
			c-0.495,0-0.993,0.02-1.495,0.062l-18.998,1.563c-4.758,0.391-9.165,2.656-12.253,6.297c-3.087,3.641-4.603,8.359-4.211,13.117
			l2.712,32.985c-4.097,0.788-7.814,2.979-10.492,6.228c-6.143,7.452-10.392,12.463-12.433,14.871l-0.046,0.055
			c-3.132,3.694-4.644,8.494-4.193,13.316c0.45,4.821,2.825,9.259,6.587,12.309c11.018,8.93,25.417,9.896,31.097,9.896
			c1.053,0,2.018-0.036,2.87-0.105c11.627-0.957,21.623-5.271,29.024-11.902c9.056,6.352,19.853,9.788,31.044,9.788
			c1.493,0,3.007-0.062,4.5-0.185c14.44-1.188,27.556-7.907,36.931-18.922c9.398-11.04,13.918-25.08,12.729-39.533
			c-1.123-13.66-7.304-26.299-17.405-35.587C187.81,96.461,174.781,91.366,161.186,91.366L161.186,91.366z"/>
	</g>
	<g>
		<path fill="#FFFFFF" d="M286.574,180.624c-23.697-0.001-43.033-17.837-44.978-41.487c-0.991-12.05,2.747-23.775,10.524-33.017
			c7.805-9.272,18.741-14.926,30.793-15.916c1.237-0.103,2.492-0.153,3.729-0.153c23.381,0,43.2,18.305,45.123,41.672
			c2.041,24.833-16.544,46.7-41.431,48.747c-1.25,0.104-2.515,0.155-3.76,0.155C286.576,180.624,286.574,180.624,286.574,180.624z
			 M286.651,127.015c-0.233,0-0.47,0.01-0.707,0.029c-2.174,0.179-4.153,1.203-5.573,2.886c-1.435,1.697-2.123,3.856-1.94,6.08
			c0.353,4.289,3.961,7.647,8.215,7.647c0.219,0,0.44-0.01,0.663-0.027c2.203-0.181,4.211-1.222,5.654-2.929
			c1.44-1.706,2.136-3.854,1.955-6.047C294.559,130.299,291.005,127.015,286.651,127.015z"/>
		<path fill="#FFFFFF" d="M286.644,99.05c18.693,0,34.594,14.452,36.152,33.41c1.642,19.961-13.235,37.396-33.197,39.039
			c-1.016,0.083-2.023,0.125-3.025,0.125c-18.668,0-34.449-14.279-36.007-33.226c-1.642-19.962,13.123-37.584,33.085-39.225
			C284.658,99.091,285.653,99.05,286.644,99.05 M286.645,152.656c0.463,0,0.931-0.02,1.399-0.059
			c9.547-0.785,16.619-9.23,15.843-18.683c-0.745-9.063-8.306-15.901-17.236-15.901c-0.478,0-0.96,0.021-1.444,0.061
			c-9.451,0.776-16.531,9.126-15.746,18.673C270.199,145.729,277.783,152.656,286.645,152.656 M286.644,81.05
			c-1.482,0-2.986,0.062-4.469,0.184c-14.459,1.188-27.577,7.969-36.938,19.091c-9.317,11.069-13.796,25.115-12.608,39.549
			c1.123,13.659,7.287,26.269,17.358,35.507c10.013,9.185,23.007,14.243,36.587,14.243c1.493,0,3.008-0.063,4.5-0.186
			c29.832-2.453,52.109-28.675,49.662-58.453c-1.124-13.661-7.306-26.301-17.408-35.59C313.268,86.145,300.24,81.05,286.644,81.05
			L286.644,81.05z"/>
	</g>
	<g>
		<path fill="#FFFFFF" d="M188.578,185.796c-2.8,0-5.459-1.307-7.167-3.561c-1.859-2.449-2.338-5.681-1.271-8.564l27.806-75.103
			c1.215-3.278,4.217-5.558,7.702-5.845l8.583-0.706c0.248-0.02,0.495-0.03,0.74-0.03c3.201,0,6.186,1.706,7.8,4.514l39.987,69.526
			c1.537,2.672,1.6,5.942,0.168,8.671c-1.432,2.728-4.161,4.533-7.231,4.786l-18.997,1.563c-0.246,0.02-0.494,0.03-0.74,0.03
			c-3.203,0-6.189-1.709-7.804-4.521l-2.368-4.127l-18.156,1.493l-1.592,4.384c-1.201,3.305-4.215,5.608-7.721,5.897l-18.998,1.563
			C189.07,185.786,188.824,185.796,188.578,185.796z"/>
		<path fill="#FFFFFF" d="M224.968,100.988l39.988,69.527l-18.998,1.563l-5.213-9.086l-29.605,2.435l-3.563,9.808l-18.998,1.563
			l27.805-75.103L224.968,100.988 M217.25,148.808l14.754-1.214l-8.637-15.309L217.25,148.808 M224.972,82.988
			c-0.491,0-0.985,0.021-1.48,0.062l-8.582,0.706c-6.971,0.573-12.977,5.131-15.404,11.688l-27.806,75.103
			c-2.136,5.769-1.178,12.229,2.541,17.13c3.419,4.505,8.737,7.119,14.335,7.119c0.491,0,0.983-0.021,1.479-0.062l18.998-1.563
			c6.634-0.545,12.393-4.702,15.025-10.75l6.774-0.558c3.319,5.128,9.017,8.213,15.103,8.213c0.49,0,0.983-0.021,1.479-0.062
			l18.997-1.562c6.142-0.505,11.598-4.117,14.462-9.573c2.863-5.456,2.738-11.999-0.334-17.34L240.57,92.013
			C237.343,86.401,231.373,82.988,224.972,82.988L224.972,82.988z"/>
	</g>
	<g>
		<path fill="#FFFFFF" d="M206.977,110.891c-0.728,0-1.458-0.088-2.177-0.268l-3.586-0.895c-4.43-1.104-7.33-5.351-6.748-9.879
			l0.22-1.71c2.104-16.5,13.39-17.783,16.797-17.783c1.529,0,3.125,0.205,4.742,0.608c2.429,0.604,4.698,1.586,6.421,2.351
			c0.639-0.973,1.465-1.822,2.445-2.493c1.511-1.032,3.285-1.57,5.08-1.57c0.728,0,1.459,0.088,2.177,0.268l3.321,0.828
			c4.486,1.119,7.396,5.455,6.729,10.03c-0.625,4.289-2.864,9.901-6.347,13.353c-0.139,0.157-0.282,0.312-0.432,0.46
			c-2.697,2.68-6.195,4.096-10.115,4.096c-1.486,0-3.035-0.211-4.605-0.626c-1.852-0.469-3.691-1.122-5.73-2.041
			c-0.674,1.479-1.741,2.765-3.11,3.701C210.548,110.353,208.774,110.891,206.977,110.891z"/>
		<path fill="#FFFFFF" d="M230.171,88.251l3.322,0.828c-0.836,5.75-4.197,8.801-4.279,8.801c-0.006,0,0.013-0.025,0.063-0.075
			c-0.959,0.954-2.207,1.479-3.771,1.479c-0.715,0-1.498-0.11-2.348-0.34c-1.762-0.438-3.357-1.089-4.882-1.805
			c-1.588-0.729-3.056-1.35-4.618-1.74c-0.701-0.175-1.352-0.265-1.947-0.265c-2.51,0-4.076,1.603-4.547,5.289l-0.187,1.467
			l-3.585-0.894l0.22-1.71c0.741-5.814,3.056-9.932,7.871-9.931c0.787,0,1.642,0.11,2.565,0.341c1.761,0.438,3.543,1.22,5.262,1.983
			c1.717,0.765,3.436,1.529,5.195,1.968c0.437,0.109,0.914,0.188,1.402,0.188C227.681,93.837,229.591,92.786,230.171,88.251
			 M230.171,70.251c-3.301,0-6.563,0.909-9.414,2.658c-0.756-0.245-1.543-0.476-2.354-0.679c-2.329-0.58-4.655-0.875-6.918-0.875
			c-10.36-0.001-23.313,6.718-25.728,25.653l-0.219,1.692c-1.164,9.057,4.639,17.55,13.498,19.759l3.586,0.894
			c1.438,0.358,2.899,0.535,4.354,0.535c3.594,0,7.142-1.077,10.164-3.144c0.267-0.183,0.526-0.371,0.782-0.566
			c0.24,0.066,0.481,0.129,0.725,0.191c2.305,0.605,4.611,0.914,6.857,0.914c5.574,0,10.82-1.891,14.978-5.36
			c6.356-4.986,9.869-13.695,10.823-20.25c1.333-9.151-4.485-17.824-13.458-20.06l-3.322-0.828
			C233.087,70.428,231.626,70.251,230.171,70.251L230.171,70.251z"/>
	</g>
</g>
<g>
	<g>
		<g>
			<path fill="#7A5039" d="M68.344,118.469l27.805-75.102l8.583-0.706l39.989,69.526l-18.998,1.563l-5.213-9.086l-29.605,2.434
				l-3.563,9.809L68.344,118.469z M97.014,90.48l14.754-1.213l-8.637-15.309L97.014,90.48z"/>
		</g>
	</g>
	<path fill="#7A5039" d="M73.413,61.839C71.111,50.936,59.459,43.446,48,44.389c-12.429,1.022-23.079,11.934-22.061,24.316
		c1.019,12.388,13.868,15.509,25.729,20.292c2.799,1.129,7.49,1.867,7.737,4.867c0.247,3-4.611,5.885-7.622,6.132
		c-3.01,0.248-7.985-1.779-8.24-4.875c0,0-0.361,0.037-16.5,4.5c2.619,11.069,14.748,18.343,26.141,17.406
		c12.428-1.021,23.965-11.908,22.947-24.293c-0.438-5.322-2.582-10.018-6.008-13.633c-4.507-4.89-12.717-5.604-19.848-7.04
		c-2.96-0.595-6.903-1.842-7.149-4.842c-0.247-2.999,3.24-5.843,6.25-6.091s7.307,1.932,7.553,4.931
		C56.93,66.061,57.124,66.204,73.413,61.839z"/>
	<path fill="#7A5039" d="M110.553,30.176c-0.74,5.785-3.645,5.901-5.666,5.398c-1.759-0.439-3.478-1.204-5.195-1.968
		c-1.718-0.765-3.501-1.545-5.261-1.983c-6.583-1.642-9.574,2.826-10.438,9.59l-0.218,1.709l3.584,0.895l0.188-1.467
		c0.583-4.563,2.842-5.933,6.492-5.023c1.564,0.39,3.032,1.009,4.619,1.739c1.523,0.716,3.12,1.366,4.881,1.806
		c2.711,0.73,4.722,0.25,6.12-1.14c-0.607,0.604,3.304-2.458,4.217-8.727L110.553,30.176z"/>
	<g>
		<g>
			<path fill="#7A5039" d="M159.896,35.115c19.962-1.642,37.503,13.323,39.145,33.286c1.643,19.963-13.234,37.398-33.197,39.04
				c-19.962,1.643-37.391-13.139-39.033-33.101S139.933,36.757,159.896,35.115z M161.45,54.017
				c-9.451,0.777-16.531,9.126-15.746,18.673c0.777,9.451,9.134,16.627,18.585,15.852c9.547-0.785,16.619-9.23,15.842-18.682
				C179.346,60.313,170.997,53.232,161.45,54.017z"/>
		</g>
	</g>
	<g>
		<g>
			<path fill="#7A5039" d="M158.193,109.755c19.962-1.643,37.503,13.323,39.145,33.286c1.643,19.962-13.234,37.397-33.197,39.04
				c-19.962,1.642-37.391-13.14-39.032-33.102C123.466,129.018,138.231,111.396,158.193,109.755z M159.747,128.656
				c-9.451,0.776-16.531,9.126-15.746,18.673c0.777,9.451,9.134,16.628,18.585,15.851c9.547-0.785,16.619-9.229,15.842-18.682
				C177.644,134.951,169.294,127.871,159.747,128.656z"/>
			<path fill="#7A5039" d="M283.651,99.173c19.962-1.642,37.504,13.323,39.146,33.287c1.642,19.961-13.235,37.396-33.197,39.039
				c-19.962,1.642-37.391-13.14-39.032-33.102S263.689,100.814,283.651,99.173z M285.207,118.074
				c-9.451,0.776-16.531,9.126-15.746,18.673c0.775,9.451,9.133,16.628,18.584,15.852c9.547-0.785,16.619-9.23,15.843-18.683
				C303.102,124.37,294.753,117.289,285.207,118.074z"/>
		</g>
	</g>
	<g>
		<g>
			<path fill="#7A5039" d="M125.799,157.369c1.082,16.707-12.146,25.853-26.226,27.011c-2.411,0.198-13.981-0.015-21.159-5.833
				c2.124-2.505,6.373-7.514,12.64-15.117c1.565,1.328,3.863,2.109,7.624,1.801c4.918-0.404,8.329-3.792,7.893-9.096l-3.687-44.842
				l18.998-1.563L125.799,157.369z"/>
			<path fill="#7A5039" d="M188.58,177.062l27.805-75.102l8.584-0.706l39.988,69.527l-18.998,1.563l-5.213-9.086l-29.605,2.434
				l-3.563,9.809L188.58,177.062z M217.25,149.073l14.754-1.215l-8.637-15.309L217.25,149.073z"/>
		</g>
	</g>
	<g>
		<path fill="#7A5039" d="M230.171,88.251c-0.739,5.785-3.646,5.9-5.666,5.396c-1.76-0.438-3.479-1.203-5.194-1.968
			c-1.72-0.764-3.501-1.545-5.263-1.984c-6.582-1.641-9.573,2.826-10.437,9.591l-0.22,1.71l3.585,0.894l0.187-1.467
			c0.584-4.563,2.844-5.933,6.494-5.024c1.563,0.391,3.03,1.011,4.618,1.74c1.522,0.716,3.12,1.366,4.882,1.805
			c2.711,0.731,4.721,0.25,6.119-1.14c-0.607,0.604,3.305-2.458,4.217-8.727L230.171,88.251z"/>
	</g>
</g>
<polygon fill="#998675" points="272.619,241.103 317.394,232.511 274.218,209.516 "/>
<polygon opacity="0.15" fill="#FFFFFF" enable-background="new    " points="94.094,147.662 124.831,145.35 125.051,148.219 
	198.46,144.066 199.8,140.101 248.259,136.234 249.605,137.969 329.878,132.938 322.919,109.73 307.055,94.318 213.906,101.891 
	149.86,109.407 145.807,112.317 124.983,116.218 121.776,107.96 101.538,109.366 96.708,129.217 "/>
<path fill="#C7B299" d="M21.439,242.092l15.814-58.198c0,0,35.892,3.702,110.58-5.51c76.17-9.395,111.108-11.521,148.063-9.55
	c8.25,0.518,12.811,2.212,12.811,2.212l8.688,61.465c0,0-13.514-4.898-45.163-3.302c-46.274,2.333-139.376,10.912-176.989,12.977
	C51.05,244.391,21.439,242.092,21.439,242.092z"/>
<g>
	<g>
		<path fill="none" stroke="#FFFFFF" stroke-width="0.5389" stroke-miterlimit="10" d="M37.004,187.477c0,0,0.712,0.073,2.144,0.174
			"/>
		<path fill="none" stroke="#FFFFFF" stroke-width="0.5389" stroke-miterlimit="10" stroke-dasharray="4.3251,2.1625" d="
			M41.303,187.786c11.546,0.652,46.476,1.558,106.282-5.818c76.17-9.396,111.108-11.521,148.063-9.55
			c4.249,0.267,7.52,0.845,9.691,1.343"/>
		<path fill="none" stroke="#FFFFFF" stroke-width="0.5389" stroke-miterlimit="10" d="M306.394,174.018
			c1.357,0.35,2.064,0.611,2.064,0.611"/>
	</g>
</g>
<g>
	<g>
		<path fill="none" stroke="#FFFFFF" stroke-width="0.5389" stroke-miterlimit="10" d="M316.519,227.552
			c0,0-0.656-0.261-2.053-0.643"/>
		<path fill="none" stroke="#FFFFFF" stroke-width="0.5389" stroke-miterlimit="10" stroke-dasharray="4.2659,2.1329" d="
			M312.399,226.396c-5.894-1.337-18.453-3.225-39.847-2.146c-46.274,2.334-139.375,10.912-176.987,12.977
			c-35.487,1.771-60.797,0.639-69.392,0.122"/>
		<path fill="none" stroke="#FFFFFF" stroke-width="0.5389" stroke-miterlimit="10" d="M25.11,237.283
			c-1.413-0.092-2.146-0.15-2.146-0.15"/>
	</g>
</g>
<path fill="#283625" d="M282.355,92.118c0,0,1.318,4.861-2.413,8.218c-3.731,3.355-5.587,2.531-5.587,2.531
	s-2.213-3.956,0.993-7.632C278.555,91.562,282.355,92.118,282.355,92.118z"/>
<path fill="#006F8D" d="M316.755,112.817c-0.7-1-0.551-1.699-0.551-1.699s-4.101,1.899-5.199,1.05c-1.1-0.851-2.852-5.703-3.4-7.526
	c-0.55-1.824-2.3-4.023-3.699-4.023c-1.4,0-5.949,4.25-10.55,3.449c-4.601-0.8-8.851-9-8.851-9s-0.69-2.158-3.185-2.961
	c-0.931,0.063-2.382,0.342-3.907,1.327c-0.074,0.047,2.416-0.115,3.916,2.835s5.313,10.851,10.264,11.45
	c4.949,0.6,7.931-0.75,9.98-1.95c2.051-1.2,2.34-2.05,2.94,0.05c0.601,2.101,2.745,10,6.995,9.95s6.496-1.7,6.496-1.7
	S317.455,113.817,316.755,112.817z"/>
<g>
	<path fill="#D9E021" d="M301.155,134.018c0-1.05,0.899-1.75,0.899-1.75s-3.801,1.3-5-0.101c-1.2-1.399-3.042-4.351-0.971-11.75
		c2.07-7.4,2.82-7.75,2.57-10s-1.75-3.45-4.05-3.7c-2.301-0.25-8.351-2.65-11.351-5.6c-2.332-2.292-5.446-5.61-6.156-7.47
		c-0.585,0.414-1.178,0.932-1.75,1.588c-0.215,0.245-0.401,0.492-0.568,0.738c0.422,1.147,1.26,2.708,2.926,4.493
		c3.5,3.75,7.449,6.45,9.399,7.55c1.95,1.101,6.55,2.101,6.55,2.101s2.148-0.351,1.301,2.25c-0.85,2.6-3.201,8.5-3.101,13.3
		s1,7.799,3.948,9.899c2.951,2.101,7.75-0.05,7.75,0C303.552,135.617,301.155,135.067,301.155,134.018z"/>
</g>
<g>
	<path fill="#F7931E" d="M289.555,138.567c-0.101-1.149,0.101-9.449-0.05-11.6c-0.149-2.15-0.399-3.975-2.699-4.087
		c-2.301-0.112-3.852-0.912-3.301-2.662s3.295-7.19,3.101-9.9s-1.899-5.458-3.899-6.528c-1.808-0.968-7.516-2.367-8.939-5.466
		c-0.396,1.835,0.1,3.417,0.398,4.134c1.209,0.864,3.774,2.604,5.979,3.449c3,1.149,2.956,5.655,2.956,5.655
		s0.003,3.354-1.646,6.753c-1.65,3.4,0.701,5.451,0.701,5.451s1.449,0.352,3.35,0.301c1.9-0.05,2.05,1.602,2.05,2.401s0,4.45,0,4.45
		s-1.573,6.7-1.573,8.149c0,1.45,0.688,4.75,0.688,4.75l1.27-2.3c0,0,0.51-1.25,1.359-0.351
		C290.146,142.067,289.655,139.717,289.555,138.567z"/>
</g>
<path fill="#C61A1D" d="M274.001,97.484l-52.295-41.865l-14.399,23.1c0,0,57.299,21.149,67.049,24.149
	C274.355,102.868,272.957,100.361,274.001,97.484z"/>
<path fill="#FFB901" d="M275.349,95.237c0.604-0.691,1.229-1.232,1.845-1.656c-4.524-7.949-34.638-59.411-34.638-59.411
	l-20.85,21.45l52.295,41.865C274.27,96.748,274.694,95.986,275.349,95.237z"/>
<path fill="#003E0D" d="M282.355,92.118l-17.975-74.3l-21.825,16.351c0,0,30.112,51.461,34.638,59.411
	C279.852,91.751,282.355,92.118,282.355,92.118z"/>
<path fill="#FF335C" d="M191.856,3.719c0,0-2.851,3.3-1.05,10.2c1.8,6.899,16.5,64.799,16.5,64.799l14.398-23.1L191.856,3.719z"/>
<path fill="#FFD900" d="M191.856,3.719c0,0,1.69-1.874,3-2.7c9.3,8.55,47.699,33.149,47.699,33.149l-20.851,21.45L191.856,3.719z"/>
<path fill="#00975E" d="M198.082,0.044c-1.351-0.01-2.418,0.45-3.226,0.975c9.3,8.55,47.699,33.149,47.699,33.149l21.825-16.351
	c0,0-32.455-10.718-61.062-17.388C201.396,0.192,199.634,0.056,198.082,0.044z"/>
<g>
	<path fill="#42210B" d="M193.328,192.383c-2.147,0.229-3.596,1.416-3.313,4.047c-3.169,0.339-5.048,0.54-8.162,0.873
		c-0.974-8.097,4.078-12.656,10.719-13.528c10.765-1.423,16.632,8.759,11.972,17.999l-6.445,11.334l11.169-1.192
		c0.351,3.274,0.567,5.314,0.918,8.591l-26.418,2.824l-0.154-1.45l11.911-22.182C197.13,196.973,198.052,191.877,193.328,192.383z"
		/>
	<path fill="#42210B" d="M242.171,192.623c0.279,4.202,0.597,8.998,0.875,13.2c0.545,8.243-5.5,13.406-13.313,13.924
		c-7.65,0.507-14.377-3.812-14.923-12.056c-0.278-4.203-0.597-8.998-0.874-13.2c-0.545-8.244,5.553-13.41,13.204-13.917
		C234.955,180.058,241.626,184.379,242.171,192.623z M233.925,206.211c-0.268-4.041-0.577-8.729-0.85-12.824
		c-0.195-2.964-2.508-4.38-5.363-4.191c-2.748,0.184-4.801,1.889-4.604,4.853c0.271,4.095,0.581,8.782,0.85,12.824
		c0.203,3.069,2.461,4.489,5.209,4.309C232.023,210.991,234.128,209.282,233.925,206.211z"/>
	<path fill="#42210B" d="M248.951,187.972l-0.092-7.83l14.525-0.167l0.345,29.914l5.724-0.065l0.092,7.884l-20.734,0.238
		l-0.092-7.884l5.615-0.063l-0.254-22.085L248.951,187.972z"/>
	<path fill="#42210B" d="M287.022,218.882c-15.377-0.611-17.937-16.439-8.667-22.556c-5.266-6.208-1.541-16.977,10.223-16.509
		c11.762,0.469,14.562,11.604,8.875,17.321C306.096,204.023,302.292,219.49,287.022,218.882z M287.721,201.347
		c-6.476-0.258-6.849,9.13-0.374,9.388C293.875,210.994,294.25,201.606,287.721,201.347z M288.274,187.426
		c-4.694-0.187-4.935,5.856-0.239,6.043C292.673,193.653,292.914,187.61,288.274,187.426z"/>
</g>
<polygon opacity="0.15" fill="#FFFFFF" enable-background="new    " points="22.664,82.96 74.156,79.839 77.908,82.415 
	126.007,77.213 125.904,73.988 203.393,67.027 186.337,26.012 124.983,33.569 113.028,41.414 78.414,45.119 67.597,40.619 
	37.004,36.73 14.899,56.624 "/>
<g>
	<g>
		<path fill="#FFFFFF" d="M116.646,214.534c-0.955,0.52-2.281,1.027-3.992,1.515c-1.576,0.412-2.369,0.623-2.369,0.623
			c-1.224,0.396-2.108,0.877-2.643,1.455c-0.448,0.785-0.663,1.556-0.633,2.318c0.043,1.033,0.398,1.854,1.044,2.446
			c0.64,0.533,1.556,0.772,2.736,0.722c1.929-0.081,3.428-0.701,4.488-1.855c1.061-1.153,1.556-2.696,1.477-4.627L116.646,214.534
			L116.646,214.534z M118.834,227.225c-1.423,0.82-2.943,1.356-4.554,1.591c-1.622,0.246-3.053,0.393-4.3,0.445
			c-2.487,0.104-4.693-0.488-6.619-1.758c-1.922-1.266-2.948-3.457-3.078-6.576c-0.121-2.904,0.637-5.01,2.282-6.331
			c1.643-1.318,3.767-2.229,6.378-2.753c0.345-0.015,0.758-0.087,1.24-0.211c0.482-0.12,1.029-0.232,1.646-0.327
			c3.031-0.544,4.514-1.5,4.457-2.888c-0.043-1.035-0.611-1.689-1.695-1.952c-1.086-0.264-2.071-0.386-2.978-0.349
			c-0.965,0.039-1.827,0.221-2.576,0.527c-0.752,0.306-1.276,0.852-1.59,1.627l-6.95,0.288c0.183-2.165,1.078-3.968,2.683-5.416
			c1.801-1.67,4.433-2.578,7.883-2.723c3.878-0.16,6.81,0.38,8.804,1.611c2.06,1.302,3.14,3.194,3.244,5.683l0.394,9.444
			c0.115,2.763-0.292,4.946-1.236,6.546C121.335,225.303,120.184,226.476,118.834,227.225z"/>
		<path fill="#FFFFFF" d="M90.479,193.797l3.736-0.155c0.974-0.038,1.811,0.272,2.532,0.935c0.727,0.661,1.105,1.477,1.145,2.444
			l0.09,2.178l-7.265,0.305L90.479,193.797z"/>
		<path fill="#FFFFFF" d="M91.25,201.87l3.736-0.153c0.972-0.041,1.81,0.269,2.53,0.938c0.727,0.656,1.106,1.477,1.147,2.438
			l1.001,24.07l-7.268,0.304L91.25,201.87z"/>
		<path fill="#FFFFFF" d="M85.524,221.232l5.189-0.216c-0.641,2.935-2,5.209-4.08,6.822c-2.075,1.682-4.745,2.59-7.993,2.727
			c-3.948,0.164-7.069-0.991-9.393-3.46c-2.317-2.394-3.574-5.917-3.766-10.549c-0.184-4.425,0.744-7.93,2.78-10.509
			c2.109-2.649,5.137-4.063,9.077-4.226c4.149-0.172,7.416,0.943,9.805,3.335c2.322,2.467,3.578,5.986,3.766,10.547l0.031,0.726
			l0.017,0.418c0.014,0.347-0.013,0.592-0.078,0.726l-17.945,0.747c0.16,2.151,0.736,3.712,1.755,4.71
			c0.941,1.067,2.309,1.572,4.115,1.495c1.171-0.047,2.168-0.331,2.971-0.852c0.209-0.079,0.391-0.21,0.559-0.387
			c0.163-0.184,0.351-0.375,0.544-0.599c0.061-0.206,0.309-0.492,0.745-0.853C84.065,221.472,84.696,221.266,85.524,221.232
			L85.524,221.232z M72.743,213.656l10.58-0.439c-0.221-1.863-0.754-3.222-1.626-4.09c-0.947-0.928-2.241-1.361-3.904-1.292
			c-1.514,0.065-2.742,0.602-3.667,1.604C73.191,210.454,72.738,211.859,72.743,213.656z"/>
		<path fill="#FFFFFF" d="M45.957,231.4l-1.33-31.946c-0.045-1.046,0.283-1.938,0.98-2.695c0.695-0.754,1.564-1.156,2.6-1.199
			l3.633-0.149l1.21,29.048l13.427-0.558l0.277,6.637L45.957,231.4z"/>
	</g>
	<path fill="#FFFFFF" d="M165.589,210.602c-0.938,0.55-2.248,1.095-3.943,1.631c-1.565,0.458-2.352,0.69-2.352,0.69
		c-1.213,0.436-2.083,0.939-2.602,1.536c-0.423,0.796-0.617,1.573-0.563,2.333c0.075,1.034,0.454,1.842,1.113,2.416
		c0.658,0.513,1.582,0.725,2.755,0.642c1.928-0.138,3.411-0.801,4.436-1.986c1.024-1.185,1.475-2.742,1.338-4.667L165.589,210.602
		L165.589,210.602z M168.143,223.225c-1.396,0.862-2.9,1.44-4.507,1.723c-1.613,0.292-3.04,0.48-4.286,0.57
		c-2.485,0.175-4.707-0.351-6.664-1.566c-1.962-1.209-3.051-3.37-3.271-6.484c-0.204-2.898,0.491-5.024,2.101-6.396
		c1.597-1.363,3.698-2.336,6.292-2.937c0.348-0.024,0.758-0.108,1.235-0.246c0.48-0.134,1.02-0.261,1.633-0.375
		c3.013-0.633,4.47-1.632,4.372-3.018c-0.073-1.035-0.659-1.672-1.751-1.905c-1.092-0.229-2.083-0.324-2.986-0.26
		c-0.961,0.068-1.818,0.271-2.558,0.603c-0.739,0.326-1.252,0.888-1.544,1.671l-6.938,0.492c0.123-2.17,0.961-3.996,2.526-5.491
		c1.751-1.722,4.356-2.706,7.802-2.952c3.871-0.272,6.817,0.187,8.844,1.359c2.098,1.236,3.229,3.101,3.405,5.584l0.667,9.429
		c0.196,2.76-0.145,4.953-1.042,6.579C170.586,221.232,169.472,222.437,168.143,223.225z"/>
	<path fill="#FFFFFF" d="M125.082,213.987l7.15-0.507l0.309,4.349c0.087,1.244,0.5,2.187,1.238,2.835
		c0.734,0.57,1.826,0.807,3.277,0.702c1.45-0.101,2.491-0.56,3.126-1.368c0.511-0.728,0.679-2.23,0.518-4.515l-1.495-21.121
		c-0.074-1.041,0.243-1.945,0.954-2.726c0.71-0.777,1.584-1.205,2.619-1.278l3.516-0.25l1.78,25.167
		c0.163,2.279,0.174,3.949,0.046,4.997c-0.263,1.202-0.648,2.16-1.149,2.888c-0.89,1.246-2.096,2.237-3.646,2.967
		c-1.754,0.68-3.67,1.097-5.74,1.244c-2.208,0.154-4.023,0.003-5.448-0.451c-1.475-0.239-2.802-0.912-3.99-2.008
		c-0.971-0.896-1.62-1.829-1.963-2.772c-0.431-1.224-0.736-3.006-0.902-5.348L125.082,213.987z"/>
</g>
</svg>
