<?xml version="1.0" encoding="utf-8"?>
<!-- Generator: Adobe Illustrator 16.0.0, SVG Export Plug-In . SVG Version: 6.00 Build 0)  -->
<!DOCTYPE svg PUBLIC "-//W3C//DTD SVG 1.1//EN" "http://www.w3.org/Graphics/SVG/1.1/DTD/svg11.dtd">
<svg version="1.1" id="Camada_1" xmlns="http://www.w3.org/2000/svg" xmlns:xlink="http://www.w3.org/1999/xlink" x="0px" y="0px"
	 width="166.865px" height="54.326px" viewBox="0 0 166.865 54.326" enable-background="new 0 0 166.865 54.326"
	 xml:space="preserve">
<g>
	<path fill="#00A4DE" d="M73.754,22.547c-1.008,0.496-2.4,0.965-4.189,1.395c-1.646,0.357-2.473,0.541-2.473,0.541
		c-1.281,0.357-2.215,0.816-2.793,1.391c-0.496,0.791-0.752,1.578-0.752,2.367c0,1.07,0.33,1.932,0.973,2.572
		c0.638,0.576,1.574,0.863,2.795,0.863c1.996,0,3.572-0.578,4.717-1.725s1.723-2.721,1.723-4.717V22.547L73.754,22.547z
		 M75.469,35.752c-1.506,0.787-3.1,1.273-4.773,1.447c-1.688,0.184-3.172,0.275-4.463,0.275c-2.575,0-4.828-0.705-6.762-2.1
		c-1.932-1.391-2.896-3.699-2.896-6.928c0-3.004,0.873-5.146,2.629-6.441c1.754-1.291,3.988-2.141,6.709-2.57
		c0.357,0,0.787-0.057,1.291-0.164c0.504-0.104,1.072-0.195,1.713-0.268c3.154-0.432,4.729-1.355,4.729-2.793
		c0-1.072-0.559-1.771-1.668-2.092c-1.11-0.318-2.123-0.486-3.061-0.486c-0.998,0-1.896,0.148-2.684,0.434
		c-0.789,0.283-1.355,0.824-1.713,1.611h-7.191c0.281-2.229,1.283-4.051,3.004-5.479c1.934-1.648,4.691-2.475,8.262-2.475
		c4.014,0,7.02,0.688,9.025,2.045c2.072,1.43,3.107,3.436,3.107,6.008v9.775c0,2.859-0.514,5.096-1.559,6.709
		C78.135,33.875,76.896,35.037,75.469,35.752z"/>
	<path fill="#00A4DE" d="M47.613,0h3.867c1.006,0,1.857,0.359,2.574,1.072c0.723,0.715,1.078,1.576,1.078,2.576v2.254h-7.52V0z"/>
	<path fill="#00A4DE" d="M48.063,8.375h3.867c1.006,0,1.859,0.357,2.574,1.076c0.723,0.711,1.08,1.574,1.08,2.57v24.91h-7.521V8.375
		z"/>
	<path fill="#00A4DE" d="M41.314,28.129h5.371c-0.789,3.004-2.291,5.295-4.508,6.871c-2.217,1.648-5.014,2.475-8.375,2.475
		c-4.086,0-7.262-1.328-9.555-3.979c-2.291-2.572-3.438-6.266-3.438-11.059c0-4.58,1.109-8.162,3.324-10.736
		c2.293-2.648,5.482-3.977,9.559-3.977c4.295,0,7.621,1.293,9.986,3.867c2.293,2.648,3.437,6.338,3.437,11.059v0.752v0.432
		c0,0.357-0.039,0.611-0.111,0.748h-18.57c0.072,2.227,0.602,3.865,1.611,4.939c0.926,1.145,2.318,1.723,4.188,1.723
		c1.211,0,2.254-0.25,3.105-0.752c0.221-0.072,0.412-0.201,0.594-0.375c0.176-0.184,0.379-0.375,0.588-0.596
		c0.072-0.211,0.34-0.496,0.807-0.85C39.797,28.314,40.457,28.129,41.314,28.129L41.314,28.129z M28.436,19.754h10.949
		c-0.148-1.934-0.641-3.361-1.504-4.297c-0.938-0.998-2.256-1.5-3.977-1.5c-1.566,0-2.859,0.502-3.857,1.5
		C29.037,16.465,28.508,17.895,28.436,19.754z"/>
	<path fill="#00A4DE" d="M0,36.932V3.869c0-1.082,0.377-1.988,1.129-2.742C1.879,0.379,2.795,0,3.865,0h3.76v30.063h13.896v6.869H0z
		"/>
	<path fill="#ED3135" d="M123.974,22.547c-1.008,0.496-2.398,0.965-4.188,1.395c-1.648,0.357-2.475,0.541-2.475,0.541
		c-1.283,0.357-2.217,0.816-2.795,1.391c-0.494,0.791-0.75,1.578-0.75,2.367c0,1.07,0.332,1.932,0.971,2.572
		c0.643,0.576,1.578,0.863,2.795,0.863c1.998,0,3.576-0.578,4.721-1.725c1.143-1.146,1.721-2.721,1.721-4.717V22.547L123.974,22.547
		z M125.687,35.752c-1.502,0.787-3.096,1.273-4.773,1.447c-1.686,0.184-3.17,0.275-4.461,0.275c-2.576,0-4.83-0.705-6.76-2.1
		c-1.936-1.391-2.9-3.699-2.9-6.928c0-3.004,0.873-5.146,2.633-6.441c1.748-1.291,3.984-2.141,6.705-2.57
		c0.359,0,0.789-0.057,1.291-0.164c0.506-0.104,1.072-0.195,1.713-0.268c3.152-0.432,4.729-1.355,4.729-2.793
		c0-1.072-0.557-1.771-1.668-2.092c-1.107-0.318-2.123-0.486-3.061-0.486c-0.996,0-1.895,0.148-2.682,0.434
		c-0.787,0.283-1.357,0.824-1.715,1.611h-7.191c0.285-2.229,1.283-4.051,3.006-5.479c1.932-1.648,4.691-2.475,8.264-2.475
		c4.012,0,7.018,0.688,9.023,2.045c2.072,1.43,3.104,3.436,3.104,6.008v9.775c0,2.859-0.512,5.096-1.555,6.709
		C128.353,33.875,127.115,35.037,125.687,35.752z"/>
	<path fill="#ED3135" d="M81.947,23.08h7.412v4.508c0,1.291,0.357,2.291,1.07,3.014c0.715,0.643,1.824,0.965,3.328,0.965
		s2.611-0.395,3.324-1.184c0.58-0.715,0.863-2.254,0.863-4.619V3.869c0-1.08,0.393-1.988,1.182-2.742
		C99.916,0.379,100.849,0,101.921,0h3.645v26.086c0,2.363-0.109,4.086-0.318,5.158c-0.359,1.219-0.826,2.18-1.395,2.895
		c-1.008,1.219-2.326,2.154-3.977,2.793c-1.859,0.572-3.865,0.863-6.012,0.863c-2.289,0-4.148-0.291-5.586-0.863
		c-1.504-0.355-2.824-1.145-3.969-2.363c-0.936-0.994-1.537-2.006-1.822-3.002c-0.355-1.293-0.541-3.154-0.541-5.582V23.08z"/>
	<g>
		<g>
			<path fill="#505457" d="M15.039,45.27c0.65-0.104,1.426-0.176,2.275-0.176c1.537,0,2.633,0.355,3.359,0.994
				c0.75,0.654,1.182,1.578,1.182,2.875c0,1.305-0.432,2.373-1.195,3.107c-0.789,0.748-2.066,1.15-3.68,1.15
				c-0.775,0-1.402-0.033-1.941-0.094V45.27z M16.107,52.344c0.27,0.035,0.666,0.047,1.082,0.047c2.302,0,3.531-1.232,3.531-3.393
				c0.012-1.889-1.094-3.084-3.357-3.084c-0.553,0-0.975,0.045-1.256,0.104V52.344z"/>
			<path fill="#505457" d="M30.32,49.068c0,2.74-1.734,4.213-3.854,4.213c-2.201,0-3.727-1.65-3.727-4.07
				c0-2.539,1.623-4.199,3.838-4.199C28.857,45.012,30.32,46.684,30.32,49.068z M23.873,49.188c0,1.721,0.959,3.25,2.658,3.25
				c1.697,0,2.656-1.506,2.656-3.32c0-1.604-0.861-3.264-2.645-3.264C24.758,45.854,23.873,47.441,23.873,49.188z"/>
			<path fill="#505457" d="M41.162,54.326c-1.121-0.287-2.215-0.605-3.176-0.926c-0.186-0.061-0.344-0.119-0.504-0.119
				c-1.982-0.072-3.654-1.473-3.654-4.059c0-2.563,1.613-4.211,3.852-4.211c2.262,0,3.728,1.686,3.728,4.045
				c0,2.064-0.984,3.371-2.363,3.848v0.045c0.822,0.203,1.723,0.391,2.424,0.512L41.162,54.326z M40.275,49.117
				c0-1.615-0.861-3.264-2.621-3.264c-1.809,0-2.695,1.613-2.695,3.346c0,1.709,0.961,3.238,2.658,3.238
				C39.316,52.438,40.275,50.932,40.275,49.117z"/>
			<path fill="#505457" d="M43.869,45.152v4.746c0,1.783,0.826,2.539,1.932,2.539c1.217,0,2.018-0.781,2.018-2.539v-4.746h1.084
				v4.676c0,2.457-1.342,3.453-3.137,3.453c-1.699,0-2.98-0.926-2.98-3.416v-4.713H43.869z"/>
			<path fill="#505457" d="M55.041,49.402h-3.209v2.883h3.592v0.867h-4.676v-8h4.492v0.865h-3.408v2.529h3.209V49.402z"/>
			<path fill="#505457" d="M60.803,53.152l-2.721-8h1.17l1.291,3.939c0.346,1.08,0.652,2.053,0.887,2.99h0.023
				c0.234-0.924,0.566-1.934,0.949-2.979l1.4-3.951h1.146l-2.967,8H60.803z"/>
			<path fill="#505457" d="M72.934,49.068c0,2.74-1.732,4.213-3.85,4.213c-2.203,0-3.73-1.65-3.73-4.07
				c0-2.539,1.627-4.199,3.84-4.199C71.471,45.012,72.934,46.684,72.934,49.068z M66.486,49.188c0,1.721,0.961,3.25,2.656,3.25
				c1.703,0,2.662-1.506,2.662-3.32c0-1.604-0.863-3.264-2.648-3.264C67.373,45.854,66.486,47.441,66.486,49.188z"/>
			<path fill="#505457" d="M80.109,52.904c-0.381,0.188-1.182,0.377-2.191,0.377c-2.336,0-4.084-1.422-4.084-4.059
				c0-2.518,1.76-4.201,4.33-4.201c1.023,0,1.689,0.213,1.969,0.357l-0.27,0.842c-0.395-0.189-0.973-0.332-1.662-0.332
				c-1.943,0-3.234,1.199-3.234,3.299c0,1.971,1.168,3.215,3.174,3.215c0.666,0,1.328-0.131,1.76-0.332L80.109,52.904z"/>
			<path fill="#505457" d="M85.746,49.402h-3.212v2.883h3.593v0.867h-4.677v-8h4.494v0.865h-3.41v2.529h3.212V49.402z
				 M84.097,43.371l1.291,1.354h-0.912l-0.773-0.818h-0.025l-0.787,0.818h-0.873l1.255-1.354H84.097z"/>
			<path fill="#505457" d="M90.125,45.246c0.518-0.08,1.195-0.152,2.057-0.152c1.057,0,1.834,0.236,2.326,0.662
				c0.441,0.383,0.725,0.963,0.725,1.676c0,0.723-0.221,1.293-0.641,1.707c-0.576,0.582-1.488,0.879-2.533,0.879
				c-0.32,0-0.615-0.012-0.861-0.072v3.207h-1.072V45.246z M91.197,49.104c0.234,0.059,0.527,0.084,0.885,0.084
				c1.293,0,2.082-0.617,2.082-1.697c0-1.07-0.789-1.576-1.957-1.576c-0.469,0-0.824,0.033-1.01,0.08V49.104z"/>
			<path fill="#505457" d="M96.671,45.258c0.543-0.092,1.33-0.164,2.057-0.164c1.145,0,1.895,0.213,2.398,0.652
				c0.408,0.355,0.652,0.902,0.652,1.531c0,1.043-0.689,1.744-1.551,2.027v0.037c0.629,0.215,1.01,0.783,1.205,1.613
				c0.271,1.115,0.471,1.887,0.641,2.197h-1.105c-0.135-0.238-0.322-0.914-0.541-1.91c-0.248-1.105-0.703-1.521-1.674-1.557h-1.01
				v3.467h-1.072V45.258z M97.744,48.902h1.094c1.145,0,1.871-0.605,1.871-1.52c0-1.031-0.775-1.482-1.908-1.482
				c-0.516,0-0.873,0.035-1.057,0.082V48.902z"/>
			<path fill="#505457" d="M107.576,49.402h-3.213v2.883h3.594v0.867h-4.676v-8h4.492v0.865h-3.41v2.529h3.213V49.402z"/>
			<path fill="#505457" d="M115.13,52.904c-0.383,0.188-1.18,0.377-2.189,0.377c-2.338,0-4.086-1.422-4.086-4.059
				c0-2.518,1.76-4.201,4.33-4.201c1.023,0,1.688,0.213,1.971,0.357l-0.273,0.842c-0.393-0.189-0.971-0.332-1.658-0.332
				c-1.945,0-3.236,1.199-3.236,3.299c0,1.971,1.168,3.215,3.174,3.215c0.666,0,1.328-0.131,1.76-0.332L115.13,52.904z"/>
			<path fill="#505457" d="M117.554,45.152v8h-1.082v-8H117.554z"/>
		</g>
		<g>
			<path fill="#505457" d="M2.445,46.033H0.014v-0.879h5.922v0.879H3.49v7.119H2.445V46.033z"/>
			<path fill="#505457" d="M7.857,45.154v4.748c0,1.779,0.795,2.539,1.863,2.539c1.176,0,1.947-0.783,1.947-2.539v-4.748h1.043
				v4.676c0,2.457-1.293,3.455-3.023,3.455c-1.639,0-2.873-0.928-2.873-3.418v-4.713H7.857z"/>
		</g>
		<g>
			<path fill="#505457" d="M119.755,51.891c0.463,0.299,1.127,0.525,1.842,0.525c1.055,0,1.672-0.557,1.672-1.365
				c0-0.736-0.428-1.174-1.508-1.58c-1.305-0.475-2.111-1.162-2.111-2.279c0-1.246,1.033-2.172,2.588-2.172
				c0.803,0,1.41,0.191,1.754,0.393l-0.283,0.842c-0.25-0.152-0.783-0.379-1.506-0.379c-1.094,0-1.51,0.652-1.51,1.199
				c0,0.746,0.488,1.115,1.59,1.543c1.354,0.521,2.033,1.174,2.033,2.35c0,1.234-0.906,2.313-2.791,2.313
				c-0.773,0-1.615-0.234-2.043-0.52L119.755,51.891z"/>
			<path fill="#505457" d="M127.031,50.635l-0.832,2.516h-1.066l2.73-7.998h1.234l2.729,7.998h-1.104l-0.854-2.516H127.031z
				 M129.666,49.826l-0.795-2.301c-0.178-0.523-0.297-0.998-0.414-1.459h-0.023c-0.119,0.461-0.238,0.959-0.404,1.447l-0.783,2.313
				H129.666z"/>
		</g>
		<path fill="#505457" d="M136.376,51.895c0.457,0.297,1.117,0.523,1.822,0.523c1.051,0,1.662-0.559,1.662-1.367
			c0-0.732-0.424-1.172-1.496-1.576c-1.295-0.475-2.096-1.162-2.096-2.279c0-1.246,1.023-2.172,2.568-2.172
			c0.799,0,1.4,0.189,1.74,0.393l-0.283,0.842c-0.246-0.154-0.775-0.379-1.496-0.379c-1.082,0-1.494,0.652-1.494,1.199
			c0,0.748,0.484,1.115,1.578,1.541c1.344,0.523,2.014,1.174,2.014,2.352c0,1.232-0.895,2.314-2.768,2.314
			c-0.764,0-1.6-0.238-2.025-0.523L136.376,51.895z"/>
		<path fill="#505457" d="M143.595,50.639l-0.826,2.514h-1.059l2.709-7.998h1.223l2.709,7.998h-1.096l-0.846-2.514H143.595z
			 M146.207,49.83l-0.787-2.301c-0.178-0.523-0.295-0.998-0.412-1.461h-0.023c-0.117,0.463-0.236,0.959-0.4,1.449l-0.777,2.313
			H146.207z"/>
		<path fill="#505457" d="M149.517,45.273c0.449-0.107,1.168-0.178,1.873-0.178c1.023,0,1.684,0.178,2.166,0.58
			c0.412,0.309,0.672,0.785,0.672,1.414c0,0.783-0.518,1.457-1.342,1.756v0.035c0.754,0.178,1.635,0.807,1.635,1.994
			c0,0.688-0.271,1.223-0.682,1.602c-0.543,0.51-1.436,0.748-2.732,0.748c-0.705,0-1.248-0.047-1.59-0.096V45.273z M150.541,48.547
			h0.934c1.07,0,1.705-0.58,1.705-1.352c0-0.926-0.695-1.303-1.729-1.303c-0.473,0-0.742,0.035-0.91,0.068V48.547z M150.541,52.369
			c0.215,0.037,0.498,0.049,0.861,0.049c1.061,0,2.037-0.393,2.037-1.553c0-1.082-0.93-1.545-2.049-1.545h-0.85V52.369z"/>
		<path fill="#505457" d="M160,49.404h-3.072v2.883h3.438v0.865h-4.475v-7.998h4.297v0.867h-3.26v2.525H160V49.404z"/>
		<path fill="#505457" d="M161.697,45.262c0.52-0.096,1.273-0.166,1.967-0.166c1.094,0,1.811,0.215,2.295,0.654
			c0.391,0.354,0.625,0.9,0.625,1.529c0,1.045-0.658,1.744-1.484,2.029v0.035c0.602,0.215,0.967,0.783,1.154,1.613
			c0.26,1.115,0.449,1.889,0.611,2.195h-1.059c-0.129-0.236-0.309-0.912-0.516-1.91c-0.238-1.104-0.672-1.518-1.604-1.555h-0.967
			v3.465h-1.023V45.262z M162.72,48.904h1.049c1.096,0,1.791-0.604,1.791-1.52c0-1.033-0.744-1.482-1.826-1.482
			c-0.494,0-0.836,0.033-1.014,0.082V48.904z"/>
	</g>
	<g>
		<path fill="#2B2E31" d="M133.81,36.598v-1.662h1.648v1.662H133.81z"/>
		<path fill="#2B2E31" d="M143.552,33.447l1.426,0.184c-0.158,0.988-0.557,1.764-1.195,2.322c-0.643,0.561-1.43,0.838-2.361,0.838
			c-1.17,0-2.107-0.383-2.82-1.152c-0.711-0.771-1.068-1.873-1.068-3.313c0-0.93,0.154-1.744,0.463-2.439
			c0.305-0.699,0.768-1.221,1.395-1.568c0.623-0.35,1.305-0.523,2.039-0.523c0.928,0,1.688,0.236,2.277,0.709
			s0.969,1.145,1.135,2.016l-1.408,0.219c-0.135-0.578-0.373-1.014-0.713-1.307c-0.34-0.291-0.754-0.438-1.234-0.438
			c-0.73,0-1.322,0.264-1.777,0.791c-0.457,0.525-0.686,1.357-0.686,2.5c0,1.158,0.221,1.996,0.66,2.523
			c0.438,0.523,1.014,0.785,1.723,0.785c0.566,0,1.041-0.176,1.424-0.529C143.208,34.715,143.451,34.174,143.552,33.447z"/>
		<path fill="#2B2E31" d="M145.677,32.295c0-1.596,0.439-2.777,1.316-3.545c0.738-0.637,1.633-0.955,2.691-0.955
			c1.172,0,2.133,0.387,2.879,1.162c0.746,0.777,1.117,1.85,1.117,3.215c0,1.107-0.164,1.979-0.494,2.613
			c-0.328,0.637-0.811,1.129-1.439,1.48c-0.631,0.352-1.32,0.525-2.063,0.525c-1.199,0-2.164-0.385-2.9-1.156
			C146.044,34.859,145.677,33.746,145.677,32.295z M147.166,32.295c0,1.102,0.238,1.928,0.717,2.477
			c0.477,0.549,1.078,0.822,1.803,0.822c0.717,0,1.316-0.275,1.793-0.828c0.477-0.551,0.715-1.391,0.715-2.521
			c0-1.064-0.24-1.871-0.719-2.42c-0.482-0.549-1.074-0.822-1.789-0.822c-0.725,0-1.326,0.273-1.803,0.818
			C147.404,30.369,147.166,31.189,147.166,32.295z"/>
		<path fill="#2B2E31" d="M155.378,36.598V27.99h1.297v1.209c0.266-0.424,0.625-0.762,1.066-1.02
			c0.447-0.256,0.957-0.385,1.523-0.385c0.633,0,1.152,0.133,1.557,0.396c0.404,0.266,0.688,0.637,0.855,1.113
			c0.678-1.008,1.557-1.51,2.641-1.51c0.848,0,1.498,0.236,1.955,0.709c0.455,0.473,0.682,1.203,0.682,2.186v5.908h-1.438v-5.424
			c0-0.584-0.047-1.004-0.143-1.258c-0.092-0.258-0.266-0.465-0.51-0.621c-0.246-0.156-0.537-0.234-0.871-0.234
			c-0.6,0-1.1,0.201-1.494,0.602c-0.398,0.404-0.594,1.049-0.594,1.936v5h-1.449v-5.592c0-0.65-0.121-1.135-0.354-1.461
			c-0.238-0.324-0.625-0.484-1.16-0.484c-0.406,0-0.783,0.107-1.131,0.322c-0.344,0.219-0.594,0.533-0.75,0.949
			s-0.234,1.016-0.234,1.801v4.465H155.378z"/>
	</g>
</g>
</svg>
