<?xml version="1.0" encoding="utf-8"?>
<!-- Generator: Adobe Illustrator 16.0.0, SVG Export Plug-In . SVG Version: 6.00 Build 0)  -->
<!DOCTYPE svg PUBLIC "-//W3C//DTD SVG 1.1//EN" "http://www.w3.org/Graphics/SVG/1.1/DTD/svg11.dtd">
<svg version="1.1" id="Camada_1" xmlns="http://www.w3.org/2000/svg" xmlns:xlink="http://www.w3.org/1999/xlink" x="0px" y="0px"
	 width="2113.333px" height="1082.5px" viewBox="0 0 2113.333 1082.5" enable-background="new 0 0 2113.333 1082.5"
	 xml:space="preserve">
<path opacity="0.4" fill="none" stroke="#603813" stroke-width="1.5" stroke-linecap="round" stroke-linejoin="round" stroke-miterlimit="10" stroke-dasharray="20,8" d="
	M427.063,766.158c-0.175,2.465-2.322,3.613-2.322,3.613s-8.029-0.273-9.383-0.191c-5.702,0.387-8.506,5.895-8.506,5.895
	s0-3.189-8.119,28.996s5.606,42.432,8.312,45.717s1.354,5.605,0,8.313s-1.063,4.736,0.387,5.605s1.896,0.822,1.257,4.059
	c-4.156,19.621-7.395,41.514-8.12,49.922c-0.725,8.41-8.553,23.197-8.553,23.197s-1.498,6.959-8.892,4.736
	c-7.394-2.225-35.859-1.596-35.859-1.596l-0.677-72.756c0,0,0-5.291,1.305-7.465c1.305-2.176,1.667-3.408,0.218-5.365
	s-0.58-4.059-0.58-4.059s9.351-1.305,11.526-2.684c2.175-1.377,2.416-6.74,2.03-7.684c-0.386-0.941-3.625-0.652,4.494-8.045
	c8.119-7.395,11.599-11.02,14.208-17.729c2.61-6.709-1.377-8.514-9.496-16.488c-8.119-7.973-9.786-18.049-9.786-18.049
	s-1.522-3.914-0.942-6.379c0.58-2.465-2.897-8.556-9.564-8.222c-7.675,0.385-17.41-0.424-19.833-0.834
	c-1.559-0.265-3.967-1.043-2.839-7.455c6.984-5.337,7.904-7.639,9.22-9.999c1.657-2.972,2.393-7.606,3.154-11.258
	c1.11-5.324,1.74-9.568,1.812-12.105c0.073-2.537,1.522-1.522,1.522-1.522s4.929,1.231,11.381,2.319s9.351-1.595,11.163-5.727
	c1.813-4.132,2.537-11.816,1.885-16.963s-6.307-19.427-15.44-30.155c-9.134-10.729-21.602-14.716-37.477-15.15
	c-15.875-0.435-34.868,14.933-39.652,20.877c-4.784,5.944-20.225,28.343-15.368,40.956s10.785,9.992,14.498,8.338
	c3.779-1.686,14.425-5.51,14.135-0.146c1.16,14.354,4.132,21.096,5.582,23.486c1.069,1.494,3.354,3.105,5.967,5.328
	c0.477,4.51-0.586,8.76-0.586,8.76c-5.813,3.106-19.807,1.715-21.474,1.934c-1.667,0.217-6.017-0.291-7.611,5.871
	s-6.162,14.063-12.758,20.297s-6.814,19.041-3.915,26.676c2.9,7.637,7.394,12.76,12.106,17.615c4.712,4.857,2.537,3.988,2.682,5.727
	c0.145,1.74,2.682,7.83,7.394,7.686c4.711-0.146,7.829-2.393,5.944-0.508s-4.494,4.639-4.349,8.48s1.087,3.986,1.885,4.785
	c0.797,0.797,1.305,2.609-0.145,7.611s-2.03,26.699-2.223,42.453c-0.198,4.934-0.58,16.914-0.58,17.979
	c0,1.063-1.58,14.77-2.803,19.523c-1.352,5.255-20.201,8.264-20.201,8.264s-10.873,2.031-12.903-2.318s-9.472-13.453-10.729-15.514
	c-2.09-3.427-6.379-13.918-6.669-23.486c-0.29-9.568-1.595-30.156-2.9-46.104c0.049-2.297,3.77-1.166,3.77-1.166
	s15.948,4.211,27.546-9.852c11.599-14.064,5.22-27.258,5.22-27.258s-3.043-7.832-14.063-18.414c0,0-3.988-4.637-12.687-9.566
	c0,0,0.083-2.602-0.145-5.363c-0.942-11.02-5.146-23.486-6.089-29.287c-0.942-5.799-3.77-7.611-5.582-7.9
	c-1.232-0.198-11.426-1.921-14.625-5.058c-1.507-1.479-1.398-6.627,1.81-5.615c6.301,1.987,7.718-1.293,12.051-12.158
	c3.011-7.55,2.418-11.672,3.638-17.161c9.612-8.089,20.83-21.697,20.105-34.455s-8.119-26.676-22.544-34.359
	c-14.425-7.685-25.806-0.726-31.678,3.551c-5.872,4.277-15.15,17.035-18.848,25.082c-3.697,8.047-13.918,22.617-13.918,22.617"/>
<path opacity="0.4" fill="none" stroke="#603813" stroke-width="1.5" stroke-linecap="round" stroke-linejoin="round" stroke-miterlimit="10" stroke-dasharray="20,8" d="
	M422.606,763.877c0,0-3.962-2.223-4.929-15.367c-0.604-8.217-1.246-12.996-2.421-15.049c-0.705-1.23-1.602-1.48-2.798-0.9
	c-3.19,1.547-12.517,1.305-23.536-16.237s12.758-41.319,12.758-41.319s14.353-14.449,31.46-14.933s32.379,7.056,43.591,26.29
	c11.211,19.234,12.143,17.784,14.304,18.654s8.217,6.572,8.022,22.133c-0.193,15.561-14.111,8.119-14.111,8.119l-12.564-5.799
	c0,0-2.61-1.257-3.093,1.932c-0.483,3.189-4.542,16.432-6.669,22.23c-2.127,5.801-4.606,5.455-2.287,12.703
	c1.596,3.594,16.012,7.016,16.012,7.016s10.245-1.354,12.662,7.73c2.416,9.086,6.281,27.547,0.579,39.242
	s-17.881,21.844-17.881,21.844s-0.87,3.865-3.093,8.506c0.58,7.539,4.543,15.27,4.543,15.27s2.682,5.51,0.29,8.119
	c-2.393,2.609-3.045,0.943-2.973,5.293c0.072,4.348,0.29,64.369,0.29,64.369s-1.763,16.947,7.611,20.225
	c6.291,2.199,18.751,4.447,18.751,4.447s900.785,263.822,1386.105-15.069c320.305-184.064,319.806-760.526-96.675-852.372
	S1075.09,433.873,559.115,2"/>
<path opacity="0.4" fill="none" stroke="#603813" stroke-width="1.5" stroke-linecap="round" stroke-linejoin="round" stroke-miterlimit="10" stroke-dasharray="20,8" d="
	M201.368,965.398c0,0-8.989-3.77-16.431-15.367c-2.609-3.119-3.308-32.379-3.308-32.379s2.728-28.32,3.114-36.439
	s5.606-10.053,6.573-2.029c0.966,8.021,3.866,32.186,4.929,39.145C197.308,925.287,197.211,947.518,201.368,965.398z"/>
<path opacity="0.4" fill="none" stroke="#603813" stroke-width="1.5" stroke-linecap="round" stroke-linejoin="round" stroke-miterlimit="10" stroke-dasharray="20,8" d="
	M299.083,954.09c0,0-2.209-4.014-2.803-14.596c-0.603-10.744,2.707-48.713,6.862-62.051c4.156-13.338,9.665-10.824,9.665-10.824
	s10.922-4.641,12.275,33.441c0.173,27.213-1.257,31.896-1.257,31.896s-3.093,10.535-2.03,16.914
	C322.861,955.25,302.467,958.729,299.083,954.09z"/>
<path opacity="0.4" fill="none" stroke="#603813" stroke-width="1.5" stroke-linecap="round" stroke-linejoin="round" stroke-miterlimit="10" stroke-dasharray="20,8" d="
	M422.509,955.152c0,0-2.759-11.652,1.934-32.088c1.685-7.336,6.572-26.676,8.021-35.666c1.45-8.988,5.316-15.078,6.476-5.412
	s4.349,39.049,3.672,49.486c-0.676,10.439-4.349,19.428-5.412,21.457s-5.28,5.412-5.28,5.412S425.603,965.303,422.509,955.152z"/>
<path opacity="0.4" fill="none" stroke="#603813" stroke-width="1.5" stroke-linecap="round" stroke-linejoin="round" stroke-miterlimit="10" stroke-dasharray="20,8" d="
	M470.814,729.275c0,0-9.691-25.71-39.123-24.695c-21.167,1.16-17.9,27.699-17.9,27.699"/>
<path opacity="0.4" fill="none" stroke="#603813" stroke-width="1.5" stroke-linecap="round" stroke-linejoin="round" stroke-miterlimit="10" stroke-dasharray="20,8" d="
	M446.479,763.512c0,0-15.706,7.131-23.873,0.365"/>
<path opacity="0.4" fill="none" stroke="#603813" stroke-width="1.5" stroke-linecap="round" stroke-linejoin="round" stroke-miterlimit="10" stroke-dasharray="20,8" d="
	M221.25,722.875c0.029-13.172-1.625-15.875-6.083-19.281c-5.983-4.571-13.656-6.427-25.5-1.594
	c-11.735,4.788-22.5,9.167-20.402,26.259"/>
<path opacity="0.4" fill="none" stroke="#603813" stroke-width="1.5" stroke-linecap="round" stroke-linejoin="round" stroke-miterlimit="10" stroke-dasharray="20,8" d="
	M180.641,745.293c0,0,11.952,12.87,23.108,9.771"/>
<path opacity="0.4" fill="none" stroke="#603813" stroke-width="1.5" stroke-linecap="round" stroke-linejoin="round" stroke-miterlimit="10" stroke-dasharray="20,8" d="
	M287.992,729.459c0,0-0.023-16.711,14.958-22.897s25.709-2.03,31.896,6.282s5.896,10.391,6.669,15.006"/>
<path opacity="0.4" fill="none" stroke="#603813" stroke-width="1.5" stroke-linecap="round" stroke-linejoin="round" stroke-miterlimit="10" stroke-dasharray="20,8" d="
	M295.66,756.102c0,0,8.092,7.678,20.917,6.807c13.483-0.916,20.844-6.916,23.125-22.953"/>
<path opacity="0.4" fill="none" stroke="#603813" stroke-width="1.5" stroke-linecap="round" stroke-linejoin="round" stroke-miterlimit="10" stroke-dasharray="20,8" d="
	M156.938,843.455c0,0,4.254,2.809,5.526,3.93c4.812,4.241,15.25,14.093,20.035,13.948c4.784-0.146,15.302-2.495,15.833-10.323
	c0.531-7.83,1.116-10.545-0.333-13.01s-1.171-4.964-9-5.833c-7.829-0.871-13.667,2.583-13.667,2.583s-12.565-6.052-18.395-15.083
	c-3.308-5.124,0-23,5.526-25c0,0,2.03,10.095,0.435,28.071"/>
<path opacity="0.4" fill="none" stroke="#603813" stroke-width="1.5" stroke-linecap="round" stroke-linejoin="round" stroke-miterlimit="10" stroke-dasharray="20,8" d="
	M170.004,855.068"/>
<path opacity="0.4" fill="none" stroke="#603813" stroke-width="1.5" stroke-linecap="round" stroke-linejoin="round" stroke-miterlimit="10" stroke-dasharray="20,8" d="
	M244.656,870.127c0,0,9.871-20.422-9.991-37.385s-32.331-23.486-41.609-13.773c-3.866,4.059-0.861,13.739-0.861,13.739"/>
<path opacity="0.4" fill="none" stroke="#603813" stroke-width="1.5" stroke-linecap="round" stroke-linejoin="round" stroke-miterlimit="10" stroke-dasharray="20,8" d="
	M224.139,874.166c0,0-10.139-3.333-23.639-21.807"/>
<path opacity="0.4" fill="none" stroke="#603813" stroke-width="1.5" stroke-linecap="round" stroke-linejoin="round" stroke-miterlimit="10" stroke-dasharray="20,8" d="
	M193.055,818.969c0,0,12.469-13.482,22.037-13.629c9.568-0.145,16.462,3.938,23.889,10.016"/>
<path opacity="0.4" fill="none" stroke="#603813" stroke-width="1.5" stroke-linecap="round" stroke-linejoin="round" stroke-miterlimit="10" stroke-dasharray="20,8" d="
	M265.112,840.27c0,0,9.857,5.811,13.771,0.736c3.914-5.074,5.944-14.063,0-18.557c-5.944-4.496-10.293-5.654-10.293-5.654
	s7.974-1.756,8.264-5.518s-7.394-2.168-14.208-1.008"/>
<path opacity="0.4" fill="none" stroke="#603813" stroke-width="1.5" stroke-linecap="round" stroke-linejoin="round" stroke-miterlimit="10" stroke-dasharray="20,8" d="
	M282.022,852.811c0,0,15.718-7.438,65.948,1.904"/>
<path opacity="0.4" fill="none" stroke="#603813" stroke-width="1.5" stroke-linecap="round" stroke-linejoin="round" stroke-miterlimit="10" stroke-dasharray="20,8" d="
	M267.935,809.387l0.067-19.414c0,0-1.442-5.799,8.996-4.93c10.438,0.871,34.795,3.625,73.069,1.74
	c8.409-1.305,8.409-1.305,9.134,6.379c0.725,7.684,0.58,16.643,1.885,21.578"/>
<path opacity="0.4" fill="none" stroke="#603813" stroke-width="1.5" stroke-linecap="round" stroke-linejoin="round" stroke-miterlimit="10" stroke-dasharray="20,8" d="
	M363.351,838.484c0,0-11.543,1.361-14.297-8.643c-2.755-10.004,5.454-13.482,7.148-14.354c1.695-0.869,4.595-1.449,6.479,1.016"/>
<path opacity="0.4" fill="none" stroke="#603813" stroke-width="1.5" stroke-linecap="round" stroke-linejoin="round" stroke-miterlimit="10" stroke-dasharray="20,8" d="
	M361.086,814.74"/>
<line opacity="0.4" fill="none" stroke="#603813" stroke-width="1.5" stroke-linecap="round" stroke-linejoin="round" stroke-miterlimit="10" stroke-dasharray="20,8" x1="191.476" y1="843.085" x2="219.292" y2="834.75"/>
<polyline opacity="0.4" fill="none" stroke="#603813" stroke-width="1.5" stroke-linecap="round" stroke-linejoin="round" stroke-miterlimit="10" stroke-dasharray="20,8" points="
	288.75,844.25 295.5,793.5 313.388,842.284 322.5,794.75 334,842.284 346.25,796 "/>
<g opacity="0.4">
	<g>
		<g>
			<path fill="none" stroke="#603813" stroke-width="1.5" stroke-linecap="round" stroke-linejoin="round" d="M168.917,684.283
				c-3.625-0.459-6.958-0.426-9.979-0.063"/>
			
				<path fill="none" stroke="#603813" stroke-width="1.5" stroke-linecap="round" stroke-linejoin="round" stroke-dasharray="19.8991,7.9596" d="
				M151.19,686.005c-7.134,2.484-11.425,6.493-12.429,7.847c-1.667,2.247-15.658,17.471-3.407,27.764
				c12.251,10.293,15.956,5.845,19.137,3.842c7.343-4.624,13.34-3.637,13.936-1.605c2.535,8.654,0.752,30.023,0.635,32.195
				c-0.145,2.684-0.72,6.698-4.562,7.786s-12.401,3.595-16.098,9.685c-7.684,12.324-11.381,30.664-11.381,30.664
				s-2.021,14.109,4.277,24.572c15.368,20.879,18.702,9.859,17.035,22.109c-1.667,12.252-3.407,31.316-3.77,35.811
				c-0.363,4.494-0.435,45.016-0.435,45.016l-0.725,15.875c0,0,2.029,25.518,1.812,29.215s-37.534,56.513-74.349,3.1
				C-23.258,828.809-64.821,412.003,206.39,236.41"/>
			<path fill="none" stroke="#603813" stroke-width="1.5" stroke-linecap="round" stroke-linejoin="round" d="M209.738,234.265
				c2.803-1.777,5.639-3.529,8.508-5.255"/>
		</g>
	</g>
	<g>
		
			<circle fill="none" stroke="#603813" stroke-width="1.5" stroke-linecap="round" stroke-linejoin="round" stroke-dasharray="20.975,8.39" cx="218.245" cy="229.01" r="28.049"/>
	</g>
	<g>
		
			<circle fill="none" stroke="#603813" stroke-width="1.5" stroke-linecap="round" stroke-linejoin="round" stroke-dasharray="19.3365,7.7346" cx="218.246" cy="229.01" r="64.634"/>
	</g>
	<g>
		<g>
			<path fill="none" stroke="#603813" stroke-width="1.5" stroke-linecap="round" stroke-linejoin="round" d="M46.667,200.954
				c3.141-1.329,6.233-2.571,9.279-3.729"/>
			
				<path fill="none" stroke="#603813" stroke-width="1.5" stroke-linecap="round" stroke-linejoin="round" stroke-dasharray="19.1455,7.6582" d="
				M63.146,194.608c82.554-28.569,128.552,5.116,146.368,23.707"/>
			<path fill="none" stroke="#603813" stroke-width="1.5" stroke-linecap="round" stroke-linejoin="round" d="M212.107,221.129
				c4.153,4.69,6.139,7.88,6.139,7.88s-0.362-3.675-1.533-9.877"/>
			
				<path fill="none" stroke="#603813" stroke-width="1.5" stroke-linecap="round" stroke-linejoin="round" stroke-dasharray="20.059,8.0236" d="
				M215.062,211.283c-8.273-35.795-36.458-114.625-125.826-130.112"/>
			<path fill="none" stroke="#603813" stroke-width="1.5" stroke-linecap="round" stroke-linejoin="round" d="M85.264,80.531
				c-3.232-0.482-6.542-0.883-9.931-1.198"/>
		</g>
	</g>
	<g>
		<g>
			<path fill="none" stroke="#603813" stroke-width="1.5" stroke-linecap="round" stroke-linejoin="round" d="M219.966,233.574
				c0,0,1.493,3.493,3.249,9.451"/>
			
				<path fill="none" stroke="#603813" stroke-width="1.5" stroke-linecap="round" stroke-linejoin="round" stroke-dasharray="21.5514,8.6206" d="
				M225.386,251.365c6.72,29.576,10.061,88.799-57.634,121.166"/>
			<path fill="none" stroke="#603813" stroke-width="1.5" stroke-linecap="round" stroke-linejoin="round" d="M163.819,374.344
				c-2.956,1.315-6.038,2.58-9.253,3.792"/>
		</g>
	</g>
	
		<path fill="none" stroke="#603813" stroke-width="1.5" stroke-linecap="round" stroke-linejoin="round" stroke-miterlimit="10" stroke-dasharray="20,8" d="
		M288,388.667c43.333-116-69.754-159.657-69.754-159.657S348.891,146.667,297.302,52"/>
	
		<path fill="none" stroke="#603813" stroke-width="1.5" stroke-linecap="round" stroke-linejoin="round" stroke-miterlimit="10" stroke-dasharray="20,8" d="
		M218.246,229.01c0,0,94.421-43.676,177.088,11.657"/>
</g>
<g opacity="0.4">
	
		<path fill="none" stroke="#603813" stroke-width="1.5" stroke-linecap="round" stroke-linejoin="round" stroke-miterlimit="10" stroke-dasharray="20,8" d="
		M308,457c0,0,9.5,69,11,69s62,23,62,23l-5.5-67.5L308,457z"/>
	
		<polygon fill="none" stroke="#603813" stroke-width="1.5" stroke-linecap="round" stroke-linejoin="round" stroke-miterlimit="10" stroke-dasharray="20,8" points="
		381,549 331.5,511.5 308,457 357,493 	"/>
	
		<path fill="none" stroke="#603813" stroke-width="1.5" stroke-linecap="round" stroke-linejoin="round" stroke-miterlimit="10" stroke-dasharray="20,8" d="
		M391.514,577.5c0,0,3.986-10-4.514-13.5s-6-15-6-15s8.5,9,16.5,10s6,9.5,6,9.5"/>
</g>
<path opacity="0.4" fill="none" stroke="#603813" stroke-width="1.5" stroke-linecap="round" stroke-linejoin="round" stroke-miterlimit="10" stroke-dasharray="20,8" d="
	M471.706,842.166l-8.539,4.667c0,0-7.5,15.668-14.833,11.334s-10.771-9.065-11.271-11.897s0.105-3.937,3.105-5.77
	c1.57-0.959-1.699-1.006-3.93-1.598c-2.031-0.538-3.633-3.313,0.888-5.069c8.583-3.333,14.708-2.5,14.708-2.5
	s4.667-4.166,12.833-9.833c7.838-5.439,7.833-14,7.833-14l0.012-12.167c0,0-3.343-13.461-5.964,24.42"/>
<polyline opacity="0.4" fill="none" stroke="#603813" stroke-width="1.5" stroke-linecap="round" stroke-linejoin="round" stroke-miterlimit="10" stroke-dasharray="20,8" points="
	444.251,831.701 426.333,806.333 411.333,844.25 436.804,844.964 "/>
<g>
	<g opacity="0.4">
		<g>
			<path fill="none" stroke="#603813" stroke-width="1.5" stroke-linecap="round" stroke-linejoin="round" d="M1869.28,741.359
				c0,0,3.846-1.616,9.258-3.785"/>
			
				<path fill="none" stroke="#603813" stroke-width="1.5" stroke-linecap="round" stroke-linejoin="round" stroke-dasharray="24.5198,9.8079" d="
				M1887.666,733.996c11.987-4.586,25.419-9.216,25.419-6.938c0,0.664-0.247,1.489-0.661,2.406"/>
			<path fill="none" stroke="#603813" stroke-width="1.5" stroke-linecap="round" stroke-linejoin="round" d="M1909.914,733.676
				c-2.749,3.929-6.287,7.775-6.287,7.775l4.523,1.233c0,0,2.745-3.173,7.132-7.003"/>
			
				<path fill="none" stroke="#603813" stroke-width="1.5" stroke-linecap="round" stroke-linejoin="round" stroke-dasharray="20.0535,8.0214" d="
				M1921.573,730.709c6.556-4.641,14.745-8.734,22.766-8.175c17.683,1.234,14.394-21.384,14.394-21.384s-2.151-16.835-12.337-14.394
				c0,0-34.134,7.813-54.694,15.216c-20.563,7.402-29.198,6.168-29.198,6.168s-23.875,1.845-21.795,27.24
				c1.51,18.432,23.988,10.779,29.135,5.447c1.761-1.824,3.592-4.42,5.192-7.498"/>
			<path fill="none" stroke="#603813" stroke-width="1.5" stroke-linecap="round" stroke-linejoin="round" d="M1876.717,729.688
				c1.216-2.983,2.166-6.255,2.646-9.621"/>
		</g>
	</g>
	
		<path opacity="0.4" fill="none" stroke="#603813" stroke-width="1.5" stroke-linecap="round" stroke-linejoin="round" stroke-miterlimit="10" stroke-dasharray="20,8" d="
		M1862.809,745.028c0,0,27.248-0.287,14.91,27.677c-12.337,27.964-40.712,10.864-40.712,10.864s-39.479-12.099-69.91-10.864
		c-30.432,1.233-25.085-18.917-25.085-18.917s1.645-13.099,8.225-14.773"/>
	
		<line opacity="0.4" fill="none" stroke="#603813" stroke-width="1.5" stroke-linecap="round" stroke-linejoin="round" stroke-miterlimit="10" stroke-dasharray="20,8" x1="1776.556" y1="735.381" x2="1842.218" y2="742.15"/>
	
		<path opacity="0.4" fill="none" stroke="#603813" stroke-width="1.5" stroke-linecap="round" stroke-linejoin="round" stroke-miterlimit="10" stroke-dasharray="20,8" d="
		M1776.556,704.439c0,0,13.159,9.048,0,26.319c-13.16,17.272-32.077,3.29-32.488-5.346c-0.411-8.637,0.914-22.207,19.169-29.198
		c18.254-6.99,19.168-3.701,19.168-3.701"/>
	
		<path opacity="0.4" fill="none" stroke="#603813" stroke-width="1.5" stroke-linecap="round" stroke-linejoin="round" stroke-miterlimit="10" stroke-dasharray="20,8" d="
		M1850.988,780.93c0,0-13.159-15.216,10.281-27.553"/>
	
		<path opacity="0.4" fill="none" stroke="#603813" stroke-width="1.5" stroke-linecap="round" stroke-linejoin="round" stroke-miterlimit="10" stroke-dasharray="20,8" d="
		M1767.097,711.637c-20.562-5.757-13.179,27.324,1.646,9.458"/>
	
		<path opacity="0.4" fill="none" stroke="#603813" stroke-width="1.5" stroke-linecap="round" stroke-linejoin="round" stroke-miterlimit="10" stroke-dasharray="20,8" d="
		M1866.204,718.833c0,0-16.449,0-14.804,13.159c1.428,11.426,13.761,5.099,15.975,2.133c1.11-1.487,2.5-12.391-7.063-8.563"/>
	
		<path opacity="0.4" fill="none" stroke="#603813" stroke-width="1.5" stroke-linecap="round" stroke-linejoin="round" stroke-miterlimit="10" stroke-dasharray="20,8" d="
		M1872.373,759.546c0,0-5.347-4.523-11.104,0s-7.993,10.808-1.023,15.471c8.837,5.913,12.127-7.098,12.127-7.098"/>
	
		<path opacity="0.4" fill="none" stroke="#603813" stroke-width="1.5" stroke-linecap="round" stroke-linejoin="round" stroke-miterlimit="10" stroke-dasharray="20,8" d="
		M1752.059,770.958c0,0-12.104,3.804-12.104,23.132c0,19.327,9.869,21.795,17.271,20.561c7.402-1.233,24.195-5.724,19.329-33.721"/>
	
		<path opacity="0.4" fill="none" stroke="#603813" stroke-width="1.5" stroke-linecap="round" stroke-linejoin="round" stroke-miterlimit="10" stroke-dasharray="20,8" d="
		M1834.539,788.745c0,0-13.981,0.409-13.57,22.205c0.411,21.795,26.338,19.722,26.338,19.722s22.248-0.591,22.599-26.825
		c0.146-10.91-5.765-16.719-5.765-16.719"/>
	
		<path opacity="0.4" fill="none" stroke="#603813" stroke-width="1.5" stroke-linecap="round" stroke-linejoin="round" stroke-miterlimit="10" stroke-dasharray="20,8" d="
		M1855.908,828.451c0,0,58.821-26.548,81.439-31.895c22.618-5.346,26.319-14.293,26.319-21.54c0-7.246-5.346-17.938-9.458-21.64"/>
	
		<path opacity="0.4" fill="none" stroke="#603813" stroke-width="1.5" stroke-linecap="round" stroke-linejoin="round" stroke-miterlimit="10" stroke-dasharray="20,8" d="
		M1950.715,721.734c0,0,17.887,23.099-3.086,35.801s-27.964-9.841-27.964-9.841s-1.646-12.411,8.225-15.29"/>
	
		<line opacity="0.4" fill="none" stroke="#603813" stroke-width="1.5" stroke-linecap="round" stroke-linejoin="round" stroke-miterlimit="10" stroke-dasharray="20,8" x1="1872.373" y1="781.26" x2="1932.151" y2="760.96"/>
	
		<path opacity="0.4" fill="none" stroke="#603813" stroke-width="1.5" stroke-linecap="round" stroke-linejoin="round" stroke-miterlimit="10" stroke-dasharray="20,8" d="
		M1757.227,814.65c0,0,56.34-14.649,62.097-9.792"/>
	
		<path opacity="0.4" fill="none" stroke="#603813" stroke-width="1.5" stroke-linecap="round" stroke-linejoin="round" stroke-miterlimit="10" stroke-dasharray="20,8" d="
		M1943.928,732.814c0,0-13.16,0.166-13.982,9.336s2.057,9.582,6.992,11.227c4.935,1.645,11.925-6.415,10.691-11.227
		s-9.647-4.183-8.936,1.055"/>
	
		<path opacity="0.4" fill="none" stroke="#603813" stroke-width="1.5" stroke-linecap="round" stroke-linejoin="round" stroke-miterlimit="10" stroke-dasharray="20,8" d="
		M1840.582,794.912c0,0-12.211,3.29-10.978,16.449s20.12,11.926,26.304,6.99c6.184-4.935,6.068-10.883,3.453-15.517
		s-18.924-3.811-17.144,4.414"/>
	
		<path opacity="0.4" fill="none" stroke="#603813" stroke-width="1.5" stroke-linecap="round" stroke-linejoin="round" stroke-miterlimit="10" stroke-dasharray="20,8" d="
		M1754.438,781.26c0,0-7.904,6.25-4.614,18.998c3.291,12.748,17.272-1.646,17.272-1.646s6.904-12.014-3.89-13.57
		c-10.795-1.557-5.98,11.926-5.98,11.926"/>
	
		<line opacity="0.4" fill="none" stroke="#603813" stroke-width="1.5" stroke-linecap="round" stroke-linejoin="round" stroke-miterlimit="10" stroke-dasharray="20,8" x1="1869.905" y1="803.847" x2="1890.271" y2="794.759"/>
	
		<line opacity="0.4" fill="none" stroke="#603813" stroke-width="1.5" stroke-linecap="round" stroke-linejoin="round" stroke-miterlimit="10" stroke-dasharray="20,8" x1="1850.845" y1="761.417" x2="1829.518" y2="757.535"/>
	
		<path opacity="0.4" fill="none" stroke="#603813" stroke-width="1.5" stroke-linecap="round" stroke-linejoin="round" stroke-miterlimit="10" stroke-dasharray="20,8" d="
		M1847.307,772.113c0,0-22.481-5.889-43.545-8.978"/>
	
		<line opacity="0.4" fill="none" stroke="#603813" stroke-width="1.5" stroke-linecap="round" stroke-linejoin="round" stroke-miterlimit="10" stroke-dasharray="20,8" x1="1777.426" y1="797.921" x2="1793.23" y2="795.404"/>
	
		<line opacity="0.4" fill="none" stroke="#603813" stroke-width="1.5" stroke-linecap="round" stroke-linejoin="round" stroke-miterlimit="10" stroke-dasharray="20,8" x1="1929.807" y1="710.954" x2="1958.732" y2="701.15"/>
	
		<line opacity="0.4" fill="none" stroke="#603813" stroke-width="1.5" stroke-linecap="round" stroke-linejoin="round" stroke-miterlimit="10" stroke-dasharray="20,8" x1="1909.787" y1="781.089" x2="1952.709" y2="767.624"/>
	
		<path opacity="0.4" fill="none" stroke="#603813" stroke-width="1.5" stroke-linecap="round" stroke-linejoin="round" stroke-miterlimit="10" stroke-dasharray="20,8" d="
		M1799.224,737.718c0,0-14.105,5.027-16.819-61.172c-2.715-66.198,10.826-79.739,10.826-79.739s-3.009,30.091,10.531,30.091
		c13.541,0,59.428-21.063,33.1-80.492c-26.329-59.429,76.923,38.937,78.987,113.004c0.69,27.105,0,35.099,0,35.099"/>
	
		<path opacity="0.4" fill="none" stroke="#603813" stroke-width="1.5" stroke-linecap="round" stroke-linejoin="round" stroke-miterlimit="10" stroke-dasharray="20,8" d="
		M1815.829,739.43c-17.271-33.405,0.721-53.856,20.279-67.684c19.559-13.826,18.808-47.858,23.253-74.939s21.354,0,21.354,0
		s34.288,35.571,21.546,101.663"/>
	
		<line opacity="0.4" fill="none" stroke="#603813" stroke-width="1.5" stroke-linecap="round" stroke-linejoin="round" stroke-miterlimit="10" stroke-dasharray="20,8" x1="1930.806" y1="761.417" x2="1879.583" y2="753.595"/>
</g>
<path opacity="0.4" fill="none" stroke="#603813" stroke-width="1.5" stroke-linecap="round" stroke-linejoin="round" stroke-miterlimit="10" stroke-dasharray="20,8" d="
	M413.25,815.125c0,0,1.625-24.188,5.375-23.125s1.701,16.396,1.458,19.917c-1.391,13.731-6.083,16.208-6.833,9.583"/>
<line opacity="0.4" fill="none" stroke="#603813" stroke-width="1.5" stroke-linecap="round" stroke-linejoin="round" stroke-miterlimit="10" stroke-dasharray="20,8" x1="409" y1="837.5" x2="440.25" y2="844.084"/>
<path opacity="0.4" fill="none" stroke="#603813" stroke-width="1.5" stroke-linecap="round" stroke-linejoin="round" stroke-miterlimit="10" stroke-dasharray="20,8" d="
	M407.363,850.604c0,0,6.637,5.114,10.387,1.755s9.904-12.734,2.827-19.359s-8.077-10.595-7.019-17.243"/>
<polyline opacity="0.4" fill="none" stroke="#603813" stroke-width="1.5" stroke-linecap="round" stroke-linejoin="round" stroke-miterlimit="10" stroke-dasharray="20,8" points="
	689.654,99.354 658,166.464 698.958,159.183 713.52,188.309 748.644,132.336 "/>
<polyline opacity="0.4" fill="none" stroke="#603813" stroke-width="1.5" stroke-linecap="round" stroke-linejoin="round" stroke-miterlimit="10" stroke-dasharray="20,8" points="
	776.204,148.866 757.811,215.904 793.832,207.9 806.339,234.415 830.54,167.878 "/>
<polyline opacity="0.4" fill="none" stroke="#603813" stroke-width="1.5" stroke-linecap="round" stroke-linejoin="round" stroke-miterlimit="10" stroke-dasharray="20,8" points="
	860.3,185.892 852.367,254.921 873.88,231.908 889.889,257.923 905.942,193.515 "/>
<polyline opacity="0.4" fill="none" stroke="#603813" stroke-width="1.5" stroke-linecap="round" stroke-linejoin="round" stroke-miterlimit="10" stroke-dasharray="20,8" points="
	941,201.298 947.422,270.427 973.438,252.917 1008.958,262.923 999.953,201.298 "/>
<polyline opacity="0.4" fill="none" stroke="#603813" stroke-width="1.5" stroke-linecap="round" stroke-linejoin="round" stroke-miterlimit="10" stroke-dasharray="20,8" points="
	1041.042,211.443 1052.483,276.923 1075.497,253.41 1102.013,268.418 1093.027,203.714 "/>
<polyline opacity="0.4" fill="none" stroke="#603813" stroke-width="1.5" stroke-linecap="round" stroke-linejoin="round" stroke-miterlimit="10" stroke-dasharray="20,8" points="
	1129.703,198.754 1145.535,264.415 1167.047,241.318 1198.566,252.909 1183.102,187.581 "/>
<polyline opacity="0.4" fill="none" stroke="#603813" stroke-width="1.5" stroke-linecap="round" stroke-linejoin="round" stroke-miterlimit="10" stroke-dasharray="20,8" points="
	1211.658,184.778 1235.846,253.905 1256.857,222.298 1286.5,241.523 1267.226,174.279 "/>
<polyline opacity="0.4" fill="none" stroke="#603813" stroke-width="1.5" stroke-linecap="round" stroke-linejoin="round" stroke-miterlimit="10" stroke-dasharray="20,8" points="
	1296.646,163.232 1314.364,230.36 1337.142,208.805 1373.825,212.824 1354.794,153.523 "/>
<polyline opacity="0.4" fill="none" stroke="#603813" stroke-width="1.5" stroke-linecap="round" stroke-linejoin="round" stroke-miterlimit="10" stroke-dasharray="20,8" points="
	1388.754,143.735 1405.76,207.995 1426.676,182.598 1454.379,195.281 1439.887,131.583 "/>
<polyline opacity="0.4" fill="none" stroke="#603813" stroke-width="1.5" stroke-linecap="round" stroke-linejoin="round" stroke-miterlimit="10" stroke-dasharray="20,8" points="
	1478.688,117.472 1500.085,181.536 1519.539,156.683 1551.936,165.532 1530.934,101.768 "/>
<polyline opacity="0.4" fill="none" stroke="#603813" stroke-width="1.5" stroke-linecap="round" stroke-linejoin="round" stroke-miterlimit="10" stroke-dasharray="20,8" points="
	1564.146,108.53 1594.164,175.333 1612.392,142.042 1643.571,158.659 1618.61,93.312 "/>
<g opacity="0.4">
	<g>
		
			<path fill="none" stroke="#603813" stroke-width="1.5" stroke-linecap="round" stroke-linejoin="round" stroke-miterlimit="10" stroke-dasharray="20,8" d="
			M1784.475,342.985l16.387-30.768c0,0,3.345-5.518,10.2-6.521c6.855-1.004,21.737-3.345,21.737-3.345s16.053-3.512,38.961,20.316
			c13.418,13.962,3.043,36.87,3.043,36.87s-4.047,11.343-1.204,19.299"/>
		
			<path fill="none" stroke="#603813" stroke-width="1.5" stroke-linecap="round" stroke-linejoin="round" stroke-miterlimit="10" stroke-dasharray="20,8" d="
			M1797.273,318.955c0,0-22.162-5.733-46.408,6.139c-24.245,11.872,12.374,45.146,12.374,45.146s59.192,52.839,128.084,38.292
			c51.835-14.462-12.694-64.711-12.694-64.711"/>
		
			<path fill="none" stroke="#603813" stroke-width="1.5" stroke-linecap="round" stroke-linejoin="round" stroke-miterlimit="10" stroke-dasharray="20,8" d="
			M1829.253,309.71c0,0,0.703,9.531,10.903,17.223c10.2,7.692,17.056,2.488,24.915,12.196"/>
		
			<path fill="none" stroke="#603813" stroke-width="1.5" stroke-linecap="round" stroke-linejoin="round" stroke-miterlimit="10" stroke-dasharray="20,8" d="
			M1838.26,407.865c0,0,56.24,17.221,82.158,16.385"/>
		
			<path fill="none" stroke="#603813" stroke-width="1.5" stroke-linecap="round" stroke-linejoin="round" stroke-miterlimit="10" stroke-dasharray="20,8" d="
			M1826.027,404.622"/>
		
			<line fill="none" stroke="#603813" stroke-width="1.5" stroke-linecap="round" stroke-linejoin="round" stroke-miterlimit="10" stroke-dasharray="20,8" x1="1891.323" y1="408.532" x2="1941.654" y2="394.987"/>
		
			<line fill="none" stroke="#603813" stroke-width="1.5" stroke-linecap="round" stroke-linejoin="round" stroke-miterlimit="10" stroke-dasharray="20,8" x1="1909.268" y1="397.412" x2="1951.018" y2="368.401"/>
		
			<line fill="none" stroke="#603813" stroke-width="1.5" stroke-linecap="round" stroke-linejoin="round" stroke-miterlimit="10" stroke-dasharray="20,8" x1="1878.814" y1="343.968" x2="1877" y2="302.171"/>
		
			<line fill="none" stroke="#603813" stroke-width="1.5" stroke-linecap="round" stroke-linejoin="round" stroke-miterlimit="10" stroke-dasharray="20,8" x1="1891.323" y1="355.221" x2="1896.841" y2="311.048"/>
		
			<line fill="none" stroke="#603813" stroke-width="1.5" stroke-linecap="round" stroke-linejoin="round" stroke-miterlimit="10" stroke-dasharray="20,8" x1="1905.156" y1="371.884" x2="1929.447" y2="334.131"/>
		
			<line fill="none" stroke="#603813" stroke-width="1.5" stroke-linecap="round" stroke-linejoin="round" stroke-miterlimit="10" stroke-dasharray="20,8" x1="1898.395" y1="362.866" x2="1913.563" y2="325.428"/>
		
			<line fill="none" stroke="#603813" stroke-width="1.5" stroke-linecap="round" stroke-linejoin="round" stroke-miterlimit="10" stroke-dasharray="20,8" x1="1790.668" y1="389.165" x2="1800.193" y2="403.516"/>
		
			<line fill="none" stroke="#603813" stroke-width="1.5" stroke-linecap="round" stroke-linejoin="round" stroke-miterlimit="10" stroke-dasharray="20,8" x1="1772.016" y1="377.151" x2="1773.606" y2="392.313"/>
		
			<line fill="none" stroke="#603813" stroke-width="1.5" stroke-linecap="round" stroke-linejoin="round" stroke-miterlimit="10" stroke-dasharray="20,8" x1="1752.676" y1="358.762" x2="1742.57" y2="362.214"/>
		
			<line fill="none" stroke="#603813" stroke-width="1.5" stroke-linecap="round" stroke-linejoin="round" stroke-miterlimit="10" stroke-dasharray="20,8" x1="1742.57" y1="340.505" x2="1714.75" y2="324.138"/>
		
			<line fill="none" stroke="#603813" stroke-width="1.5" stroke-linecap="round" stroke-linejoin="round" stroke-miterlimit="10" stroke-dasharray="20,8" x1="1760.822" y1="321.095" x2="1728.66" y2="300.073"/>
		
			<path fill="none" stroke="#603813" stroke-width="1.5" stroke-linecap="round" stroke-linejoin="round" stroke-miterlimit="10" stroke-dasharray="20,8" d="
			M1779.584,317.571"/>
		
			<line fill="none" stroke="#603813" stroke-width="1.5" stroke-linecap="round" stroke-linejoin="round" stroke-miterlimit="10" stroke-dasharray="20,8" x1="1780.078" y1="317.654" x2="1751.5" y2="296.75"/>
		
			<line fill="none" stroke="#603813" stroke-width="1.5" stroke-linecap="round" stroke-linejoin="round" stroke-miterlimit="10" stroke-dasharray="20,8" x1="1795.43" y1="318.568" x2="1777.5" y2="287.333"/>
	</g>
	
		<line fill="none" stroke="#603813" stroke-width="1.5" stroke-linecap="round" stroke-linejoin="round" stroke-miterlimit="10" stroke-dasharray="20,8" x1="1819.222" y1="402.347" x2="1837.167" y2="419.667"/>
	
		<path fill="none" stroke="#603813" stroke-width="1.5" stroke-linecap="round" stroke-linejoin="round" stroke-miterlimit="10" stroke-dasharray="20,8" d="
		M1786.465,353.007c0,0,8.035,24.957,76.035,31.725"/>
</g>
<g opacity="0.4">
	
		<path fill="none" stroke="#603813" stroke-width="1.5" stroke-linecap="round" stroke-linejoin="round" stroke-miterlimit="10" stroke-dasharray="20,8" d="
		M1081.066,549.931c-5.118,2.52-12.191,4.9-21.278,7.082c-8.362,1.816-12.56,2.748-12.56,2.748
		c-6.507,1.815-11.249,4.146-14.185,7.063c-2.52,4.018-3.819,8.016-3.819,12.023c0,5.437,1.676,9.811,4.94,13.064
		c3.241,2.927,7.996,4.385,14.195,4.385c10.139,0,18.145-2.937,23.958-8.759c5.813-5.824,8.749-13.819,8.749-23.958V549.931
		L1081.066,549.931z M1089.777,617.001c-7.648,3.997-15.744,6.467-24.246,7.351c-8.57,0.933-16.109,1.398-22.667,1.398
		c-13.077,0-24.522-3.581-34.344-10.664c-9.811-7.063-14.711-18.789-14.711-35.187c0-15.258,4.435-26.14,13.353-32.717
		c8.908-6.558,20.257-10.873,34.076-13.055c1.815,0,3.998-0.288,6.558-0.834c2.559-0.525,5.445-0.992,8.699-1.359
		c16.021-2.191,24.018-6.884,24.018-14.186c0-5.445-2.838-8.997-8.473-10.624c-5.637-1.617-10.783-2.47-15.545-2.47
		c-5.068,0-9.632,0.754-13.63,2.201c-4.008,1.439-6.885,4.187-8.7,8.185h-36.526c1.429-11.319,6.518-20.574,15.257-27.826
		c9.821-8.372,23.828-12.568,41.962-12.568c20.387,0,35.653,3.491,45.842,10.386c10.525,7.262,15.782,17.45,15.782,30.515v49.65
		c0,14.523-2.608,25.882-7.916,34.076C1103.318,607.467,1097.028,613.37,1089.777,617.001z"/>
	
		<path fill="none" stroke="#603813" stroke-width="1.5" stroke-linecap="round" stroke-linejoin="round" stroke-miterlimit="10" stroke-dasharray="20,8" d="
		M948.295,435.412h19.642c5.109,0,9.434,1.825,13.075,5.446c3.67,3.631,5.476,8.006,5.476,13.084v11.448h-38.193V435.412z"/>
	
		<path fill="none" stroke="#603813" stroke-width="1.5" stroke-linecap="round" stroke-linejoin="round" stroke-miterlimit="10" stroke-dasharray="20,8" d="
		M950.577,477.95h19.642c5.109,0,9.444,1.814,13.075,5.466c3.67,3.61,5.486,7.995,5.486,13.055v126.521h-38.203V477.95z"/>
	
		<path fill="none" stroke="#603813" stroke-width="1.5" stroke-linecap="round" stroke-linejoin="round" stroke-miterlimit="10" stroke-dasharray="20,8" d="
		M916.303,578.282h27.28c-4.008,15.257-11.636,26.894-22.896,34.898c-11.259,8.373-25.465,12.569-42.538,12.569
		c-20.753,0-36.883-6.745-48.529-20.207c-11.636-13.065-17.459-31.824-17.459-56.168c0-23.263,5.635-41.456,16.884-54.531
		c11.646-13.452,27.843-20.197,48.549-20.197c21.814,0,38.708,6.567,50.722,19.642c11.646,13.451,17.457,32.191,17.457,56.168v3.819
		v2.192c0,1.815-0.196,3.105-0.563,3.799H850.89c0.367,11.31,3.055,19.633,8.184,25.089c4.702,5.813,11.775,8.749,21.269,8.749
		c6.151,0,11.448-1.27,15.773-3.819c1.121-0.366,2.093-1.021,3.016-1.904c0.893-0.933,1.924-1.905,2.986-3.025
		c0.367-1.071,1.726-2.521,4.097-4.315C908.595,579.225,911.948,578.282,916.303,578.282L916.303,578.282z M850.89,535.744h55.612
		c-0.754-9.82-3.254-17.072-7.639-21.824c-4.762-5.069-11.458-7.618-20.197-7.618c-7.956,0-14.523,2.549-19.592,7.618
		C853.945,519.039,851.256,526.301,850.89,535.744z"/>
	
		<path fill="none" stroke="#603813" stroke-width="1.5" stroke-linecap="round" stroke-linejoin="round" stroke-miterlimit="10" stroke-dasharray="20,8" d="
		M706.462,622.992V455.063c0-5.495,1.915-10.099,5.734-13.928c3.81-3.799,8.462-5.724,13.898-5.724h19.096v152.69h70.582v34.89
		H706.462z"/>
	
		<path fill="none" stroke="#603813" stroke-width="1.5" stroke-linecap="round" stroke-linejoin="round" stroke-miterlimit="10" stroke-dasharray="20,8" d="
		M1336.144,549.931c-5.119,2.52-12.182,4.9-21.269,7.082c-8.372,1.816-12.569,2.748-12.569,2.748
		c-6.518,1.815-11.259,4.146-14.195,7.063c-2.51,4.018-3.81,8.016-3.81,12.023c0,5.437,1.687,9.811,4.931,13.064
		c3.264,2.927,8.016,4.385,14.195,4.385c10.148,0,18.164-2.937,23.977-8.759c5.805-5.824,8.74-13.819,8.74-23.958V549.931
		L1336.144,549.931z M1344.844,617.001c-7.629,3.997-15.724,6.467-24.245,7.351c-8.561,0.933-16.1,1.398-22.658,1.398
		c-13.084,0-24.531-3.581-34.333-10.664c-9.831-7.063-14.731-18.789-14.731-35.187c0-15.258,4.435-26.14,13.373-32.717
		c8.878-6.558,20.236-10.873,34.055-13.055c1.826,0,4.008-0.288,6.558-0.834c2.569-0.525,5.446-0.992,8.7-1.359
		c16.012-2.191,24.017-6.884,24.017-14.186c0-5.445-2.827-8.997-8.472-10.624c-5.625-1.617-10.783-2.47-15.545-2.47
		c-5.059,0-9.623,0.754-13.621,2.201c-3.997,1.439-6.894,4.187-8.709,8.185h-36.526c1.448-11.319,6.518-20.574,15.267-27.826
		c9.812-8.372,23.829-12.568,41.973-12.568c20.376,0,35.643,3.491,45.831,10.386c10.525,7.262,15.763,17.45,15.763,30.515v49.65
		c0,14.523-2.599,25.882-7.896,34.076C1358.385,607.467,1352.095,613.37,1344.844,617.001z"/>
	
		<path fill="none" stroke="#603813" stroke-width="1.5" stroke-linecap="round" stroke-linejoin="round" stroke-miterlimit="10" stroke-dasharray="20,8" d="
		M1122.682,552.639h37.647v22.896c0,6.557,1.814,11.637,5.436,15.307c3.631,3.264,9.266,4.9,16.904,4.9s13.264-2.004,16.885-6.012
		c2.945-3.631,4.385-11.447,4.385-23.461V455.063c0-5.485,1.993-10.099,6.001-13.928c4.008-3.799,8.749-5.724,14.196-5.724h18.51
		v132.493c0,12.004-0.555,20.753-1.616,26.199c-1.825,6.19-4.196,11.071-7.083,14.702c-5.119,6.19-11.814,10.941-20.197,14.186
		c-9.444,2.906-19.633,4.385-30.535,4.385c-11.625,0-21.07-1.479-28.371-4.385c-7.639-1.806-14.344-5.813-20.158-12.003
		c-4.751-5.05-7.807-10.188-9.255-15.248c-1.806-6.566-2.748-16.021-2.748-28.352V552.639z"/>
</g>
</svg>
