<?xml version="1.0" encoding="utf-8"?>
<!-- Generator: Adobe Illustrator 16.0.0, SVG Export Plug-In . SVG Version: 6.00 Build 0)  -->
<!DOCTYPE svg PUBLIC "-//W3C//DTD SVG 1.1//EN" "http://www.w3.org/Graphics/SVG/1.1/DTD/svg11.dtd">
<svg version="1.1" id="Camada_1" xmlns="http://www.w3.org/2000/svg" xmlns:xlink="http://www.w3.org/1999/xlink" x="0px" y="0px"
	 width="32.938px" height="34.993px" viewBox="0 -1.987 32.938 34.993" enable-background="new 0 -1.987 32.938 34.993"
	 xml:space="preserve">
<g>
	<polygon fill="#62B8D8" points="1.938,2.067 1.938,33.006 16.313,26.756 31,33.006 31,2.067 	"/>
	<rect x="0" y="-0.042" fill="#E6962E" width="32.938" height="2.109"/>
	<path fill="#FFFFFF" d="M22.354,10.479c-0.451,0.199-0.937,0.335-1.445,0.396c0.52-0.311,0.919-0.805,1.107-1.393
		c-0.487,0.288-1.025,0.498-1.6,0.611c-0.46-0.49-1.113-0.796-1.839-0.796c-1.39,0-2.518,1.128-2.518,2.518
		c0,0.198,0.021,0.39,0.065,0.574c-2.093-0.104-3.947-1.108-5.189-2.631c-0.217,0.372-0.342,0.804-0.342,1.267
		c0,0.872,0.445,1.644,1.121,2.095c-0.413-0.014-0.802-0.126-1.141-0.315c0,0.011,0,0.021,0,0.032c0,1.219,0.867,2.237,2.02,2.469
		c-0.212,0.058-0.435,0.089-0.663,0.089c-0.163,0-0.32-0.017-0.474-0.046c0.319,1,1.25,1.729,2.352,1.749
		c-0.86,0.674-1.948,1.078-3.126,1.078c-0.204,0-0.403-0.014-0.602-0.035c1.113,0.713,2.438,1.131,3.858,1.131
		c4.631,0,7.164-3.836,7.164-7.165c0-0.107-0.004-0.217-0.009-0.325C21.59,11.425,22.017,10.982,22.354,10.479z"/>
</g>
</svg>
