<?xml version="1.0" encoding="utf-8"?>
<!-- Generator: Adobe Illustrator 16.0.0, SVG Export Plug-In . SVG Version: 6.00 Build 0)  -->
<!DOCTYPE svg PUBLIC "-//W3C//DTD SVG 1.1//EN" "http://www.w3.org/Graphics/SVG/1.1/DTD/svg11.dtd">
<svg version="1.1" xmlns="http://www.w3.org/2000/svg" xmlns:xlink="http://www.w3.org/1999/xlink" x="0px" y="0px"
	 width="363.831px" height="260.862px" viewBox="0 0 363.831 260.862" enable-background="new 0 0 363.831 260.862"
	 xml:space="preserve">
<g id="Camada_2">
</g>
<g id="Camada_1">
	<g>
		<path fill="#AD9C86" d="M272.618,241.103c0,0,40.212,1.946,86.598,19.76l-30.133-35.318l34.748-23.24c0,0-8.41-9.997-86.475-18.94
			L272.618,241.103z"/>
		<g>
			<g>
				<path fill="none" stroke="#FFFFFF" stroke-width="0.5389" stroke-miterlimit="10" d="M272.918,236.802
					c0,0,0.735-0.004,2.15,0.056"/>
				<path fill="none" stroke="#FFFFFF" stroke-width="0.5389" stroke-miterlimit="10" stroke-dasharray="4.414,2.207" d="
					M277.268,236.976c9.714,0.62,35.063,3.445,69.61,16.322"/>
				<path fill="none" stroke="#FFFFFF" stroke-width="0.5389" stroke-miterlimit="10" d="M347.924,253.689
					c0.668,0.251,1.34,0.507,2.015,0.766l-1.396-1.642"/>
				
					<line fill="none" stroke="#FFFFFF" stroke-width="0.5389" stroke-miterlimit="10" stroke-dasharray="4.5024,2.2512" x1="347.083" y1="251.099" x2="325.933" y2="226.235"/>
				<polyline fill="none" stroke="#FFFFFF" stroke-width="0.5389" stroke-miterlimit="10" points="325.203,225.378 323.807,223.736 
					325.601,222.542 				"/>
				
					<line fill="none" stroke="#FFFFFF" stroke-width="0.5389" stroke-miterlimit="10" stroke-dasharray="4.1116,2.0558" x1="327.312" y1="221.402" x2="352.123" y2="204.879"/>
				<path fill="none" stroke="#FFFFFF" stroke-width="0.5389" stroke-miterlimit="10" d="M352.979,204.309l1.794-1.195
					c0,0,0.032-0.566-1.408-1.567"/>
				<path fill="none" stroke="#FFFFFF" stroke-width="0.5389" stroke-miterlimit="10" stroke-dasharray="4.4644,2.2322" d="
					M351.434,200.435c-6.056-3.003-23.093-8.195-71.018-13.826"/>
				<path fill="none" stroke="#FFFFFF" stroke-width="0.5389" stroke-miterlimit="10" d="M279.299,186.478
					c-0.707-0.083-1.421-0.165-2.142-0.248"/>
			</g>
		</g>
		<path fill="#AD9C86" d="M119.296,141.658c0,0-75.206,4.423-119.296-5.472l35.672,29.814L5.523,194.937
			c0,0,51.048,10.26,119.333,2.488L119.296,141.658z"/>
		<g>
			<g>
				<path fill="none" stroke="#FFFFFF" stroke-width="0.5389" stroke-miterlimit="10" d="M119.739,145.946
					c0,0-0.75,0.05-2.147,0.126"/>
				<path fill="none" stroke="#FFFFFF" stroke-width="0.5389" stroke-miterlimit="10" stroke-dasharray="4.2905,2.1452" d="
					M115.454,146.184c-14.322,0.705-61.87,2.345-101.635-4.394"/>
				<path fill="none" stroke="#FFFFFF" stroke-width="0.5389" stroke-miterlimit="10" d="M12.752,141.606
					c-0.709-0.123-1.416-0.249-2.12-0.378l1.66,1.375"/>
				
					<line fill="none" stroke="#FFFFFF" stroke-width="0.5389" stroke-miterlimit="10" stroke-dasharray="4.415,2.2075" x1="13.992" y1="144.013" x2="38.634" y2="164.44"/>
				<polyline fill="none" stroke="#FFFFFF" stroke-width="0.5389" stroke-miterlimit="10" points="39.484,165.145 41.144,166.521 
					39.597,168.022 				"/>
				
					<line fill="none" stroke="#FFFFFF" stroke-width="0.5389" stroke-miterlimit="10" stroke-dasharray="4.1372,2.0686" x1="38.113" y1="169.464" x2="16.598" y2="190.362"/>
				<path fill="none" stroke="#FFFFFF" stroke-width="0.5389" stroke-miterlimit="10" d="M15.856,191.083l-1.546,1.502
					c0,0,0.714,0.166,2.106,0.437"/>
				<path fill="none" stroke="#FFFFFF" stroke-width="0.5389" stroke-miterlimit="10" stroke-dasharray="4.3409,2.1704" d="
					M18.545,193.418c12.007,2.14,48.925,7.272,102.784,1.505"/>
				<path fill="none" stroke="#FFFFFF" stroke-width="0.5389" stroke-miterlimit="10" d="M122.419,194.806
					c0.711-0.078,1.425-0.158,2.142-0.239"/>
			</g>
		</g>
		<polygon fill="#998675" points="37.041,183.866 97.867,141.229 91.394,197.939 		"/>
		<g>
			<g>
				<path fill="#FFFFFF" d="M68.343,127.203c-2.625,0-5.125-1.148-6.836-3.147c-2.451,0.781-4.996,1.295-7.585,1.508
					c-0.898,0.074-1.814,0.111-2.724,0.111c-15.471,0-29.621-10.497-32.914-24.416c-1.114-4.709,1.695-9.456,6.359-10.746
					c2.1-0.581,3.941-1.089,5.558-1.535c-6.74-4.086-12.418-10.066-13.232-19.969c-0.695-8.456,2.274-16.724,8.362-23.28
					c5.711-6.151,13.705-10.066,21.931-10.743c0.889-0.073,1.794-0.11,2.691-0.11c14.399,0,27.444,9.243,31.53,21.915l6.225-16.813
					c1.214-3.279,4.218-5.558,7.703-5.845l8.583-0.706c0.247-0.02,0.494-0.03,0.739-0.03c3.201,0,6.185,1.706,7.8,4.513
					l8.792,15.288c1.747-4.076,4.106-7.915,7.04-11.4c7.806-9.273,18.741-14.925,30.792-15.917c1.238-0.102,2.493-0.153,3.729-0.153
					c23.381,0,43.201,18.305,45.123,41.672c2.042,24.833-16.543,46.701-41.429,48.748c-1.249,0.103-2.515,0.155-3.762,0.155
					c-3.307,0-6.567-0.363-9.731-1.062c-0.116,0.294-0.249,0.583-0.398,0.867c-1.432,2.728-4.16,4.534-7.231,4.787l-18.998,1.563
					c-0.248,0.02-0.495,0.03-0.74,0.03c-3.204,0-6.191-1.71-7.804-4.521l-2.368-4.127l-18.156,1.493l-1.592,4.384
					c-1.201,3.305-4.217,5.608-7.722,5.897l-18.998,1.562C68.835,127.193,68.588,127.203,68.343,127.203z M162.895,62.691
					c-0.234,0-0.47,0.01-0.707,0.029c-4.519,0.372-7.89,4.394-7.514,8.966c0.352,4.287,3.96,7.646,8.214,7.646
					c0.22,0,0.441-0.009,0.664-0.027c4.572-0.376,7.986-4.402,7.61-8.974C170.803,65.976,167.249,62.691,162.895,62.691z
					 M74.467,70.44c0.507,0.41,1,0.847,1.478,1.312l0.724-1.956c-0.3,0.116-0.609,0.217-0.927,0.302
					C75.307,70.215,74.881,70.329,74.467,70.44z"/>
				<path fill="#FFFFFF" d="M162.888,34.727c18.692,0.002,34.593,14.453,36.152,33.41c1.642,19.962-13.235,37.398-33.197,39.04
					c-1.016,0.083-2.023,0.125-3.024,0.125c-12.194,0-23.158-6.093-29.728-15.599l11.63,20.221l-18.998,1.563l-5.213-9.086
					l-29.605,2.435l-3.563,9.808l-18.998,1.562l5.908-15.958c-3.69,7.802-12.149,13.615-21.068,14.349
					c-0.661,0.054-1.322,0.081-1.986,0.081c-10.781,0-21.688-7.06-24.155-17.488c16.139-4.463,16.5-4.5,16.5-4.5
					c0.241,2.926,4.695,4.896,7.725,4.896c0.177,0,0.35-0.007,0.516-0.021c3.01-0.248,8.468-3.132,8.222-6.132
					c-0.247-3-5.538-3.738-8.337-4.867c-11.86-4.784-24.71-7.905-25.729-20.292C24.921,55.888,35.571,44.977,48,43.955
					c0.652-0.054,1.303-0.08,1.954-0.08c10.799,0.001,21.288,7.248,23.458,17.53c-15.285,4.096-16.398,4.222-16.477,4.222
					c-0.005,0-0.006,0-0.006,0c-0.234-2.843-4.108-4.95-7.075-4.95c-0.163,0-0.322,0.006-0.479,0.019
					c-3.01,0.248-6.797,3.092-6.55,6.091c0.247,3,4.489,4.248,7.449,4.842c7.131,1.436,15.34,2.15,19.848,7.04
					c3.426,3.615,5.57,8.31,6.008,13.633c0.185,2.242-0.044,4.435-0.614,6.529l20.633-55.729l8.583-0.706l25.396,44.156
					c-1.795-3.817-2.952-8.017-3.318-12.477c-1.642-19.962,13.123-37.584,33.085-39.226
					C160.901,34.767,161.896,34.727,162.888,34.727 M162.888,88.333c0.463,0,0.931-0.019,1.401-0.058
					c9.547-0.785,16.619-9.23,15.842-18.681c-0.745-9.062-8.306-15.902-17.236-15.902c-0.478,0-0.96,0.02-1.445,0.06
					c-9.451,0.777-16.531,9.126-15.746,18.673C146.442,81.405,154.025,88.333,162.888,88.333 M97.014,90.215l14.754-1.213
					l-8.637-15.309L97.014,90.215 M162.889,16.727c0,0-0.006,0-0.006,0c-1.479,0-2.981,0.062-4.463,0.184
					c-14.815,1.218-27.76,8.34-36.728,18.871l-1.357-2.36c-3.229-5.613-9.198-9.026-15.599-9.026c-0.491,0-0.984,0.02-1.479,0.061
					l-8.583,0.705c-6.97,0.573-12.977,5.131-15.405,11.69l-0.128,0.347c-1.138-1.042-2.343-2.028-3.611-2.954
					c-7.394-5.397-16.477-8.37-25.575-8.37c-1.141,0-2.295,0.047-3.43,0.141c-10.438,0.858-20.566,5.811-27.788,13.588
					C11.021,47.914,7.108,58.9,8,69.747c0.393,4.784,1.883,10.942,6.179,16.847c-4.176,4.272-6.123,10.521-4.652,16.737
					c2.184,9.233,7.921,17.493,16.153,23.256c7.45,5.216,16.512,8.088,25.519,8.088c1.155,0,2.319-0.047,3.461-0.142
					c1.617-0.133,3.221-0.359,4.803-0.674c2.68,1.52,5.736,2.344,8.88,2.344c0.491,0,0.983-0.02,1.478-0.061l18.998-1.562
					c6.635-0.546,12.394-4.702,15.027-10.75l6.773-0.557c3.32,5.127,9.016,8.212,15.102,8.212c0.491,0,0.984-0.02,1.48-0.061
					l18.998-1.563c4.137-0.34,7.964-2.09,10.896-4.865c1.891,0.201,3.801,0.303,5.726,0.303c1.493,0,3.006-0.062,4.5-0.185
					c29.833-2.453,52.11-28.676,49.661-58.454c-1.123-13.661-7.305-26.3-17.407-35.588
					C189.512,21.823,176.484,16.728,162.889,16.727L162.889,16.727z"/>
			</g>
			<g>
				<path fill="#FFFFFF" d="M87.359,52.55c-0.728,0-1.458-0.088-2.178-0.268l-3.584-0.894c-4.427-1.104-7.327-5.347-6.749-9.872
					l0.218-1.709C77.173,23.3,88.458,22.017,91.866,22.017c1.529,0,3.125,0.205,4.742,0.607c2.432,0.606,4.7,1.587,6.419,2.351
					c0.638-0.973,1.465-1.823,2.447-2.495c1.51-1.032,3.283-1.57,5.079-1.57c0.728,0,1.459,0.088,2.178,0.268l3.323,0.829
					c4.486,1.119,7.394,5.456,6.727,10.03c-0.625,4.288-2.865,9.9-6.346,13.352c-0.138,0.157-0.282,0.311-0.432,0.46
					c-2.695,2.68-6.193,4.096-10.115,4.096c-1.487,0-3.036-0.211-4.606-0.627c-2.302-0.581-4.284-1.386-5.731-2.04
					c-0.674,1.48-1.743,2.766-3.113,3.703C90.928,52.013,89.155,52.55,87.359,52.55z"/>
				<path fill="#FFFFFF" d="M110.553,29.91l3.323,0.829c-0.838,5.75-4.198,8.801-4.279,8.801c-0.007,0,0.012-0.025,0.062-0.075
					c-0.959,0.953-2.207,1.479-3.771,1.479c-0.716,0-1.498-0.11-2.349-0.34c-1.761-0.438-3.358-1.089-4.881-1.805
					c-1.587-0.731-3.055-1.35-4.619-1.74c-0.701-0.175-1.351-0.265-1.947-0.265c-2.509,0-4.075,1.603-4.545,5.289l-0.188,1.466
					l-3.584-0.894l0.218-1.709c0.742-5.814,3.056-9.931,7.872-9.93c0.787,0,1.641,0.11,2.565,0.34
					c1.76,0.438,3.542,1.219,5.261,1.984c1.717,0.764,3.436,1.529,5.195,1.967c0.437,0.109,0.915,0.189,1.403,0.189
					C108.063,35.497,109.974,34.445,110.553,29.91 M110.554,11.91c-3.301,0-6.563,0.909-9.415,2.659
					c-0.756-0.245-1.543-0.475-2.356-0.678c-2.327-0.58-4.654-0.874-6.916-0.874c-10.358-0.001-23.311,6.717-25.728,25.651
					l-0.218,1.708c-1.155,9.052,4.645,17.536,13.499,19.744l3.584,0.894c1.438,0.359,2.901,0.536,4.356,0.536
					c3.591,0,7.137-1.075,10.158-3.14c0.269-0.184,0.531-0.374,0.788-0.571c0.243,0.066,0.485,0.13,0.729,0.192
					c2.303,0.605,4.608,0.912,6.855,0.912c5.576,0,10.824-1.892,14.981-5.365c6.351-4.986,9.863-13.692,10.818-20.244
					c1.333-9.15-4.482-17.822-13.455-20.061l-3.323-0.829C113.472,12.087,112.009,11.91,110.554,11.91L110.554,11.91z"/>
			</g>
			<g>
				<path fill="#FFFFFF" d="M98.177,193.159c-3.683,0-16.401-0.569-25.43-7.886c-1.881-1.525-3.068-3.743-3.294-6.154
					c-0.225-2.411,0.531-4.811,2.097-6.658c2.097-2.473,6.374-7.516,12.56-15.021c1.533-1.859,3.746-3.026,6.146-3.24
					c0.267-0.024,0.534-0.036,0.8-0.036c1.965,0,3.879,0.644,5.448,1.837c0.13,0.016,0.329,0.031,0.609,0.031
					c0.143,0,0.29-0.004,0.441-0.011l-3.639-44.257c-0.195-2.379,0.562-4.738,2.106-6.558c1.543-1.821,3.748-2.953,6.126-3.149
					l18.998-1.562c0.25-0.021,0.5-0.031,0.748-0.031c4.636,0,8.573,3.56,8.959,8.263l0.259,3.156
					c7.077-6.352,16.188-10.529,26.345-11.364c1.238-0.102,2.493-0.153,3.73-0.153c23.381,0,43.201,18.305,45.121,41.672
					c0.991,12.05-2.778,23.756-10.613,32.961c-7.821,9.189-18.766,14.795-30.816,15.786c-1.249,0.103-2.515,0.155-3.761,0.155
					c0,0-0.001,0-0.001,0c-12.498,0-23.793-4.975-31.958-13.15c-5.917,8.558-16.087,14.244-28.846,15.294
					C99.703,193.134,98.985,193.159,98.177,193.159z M161.192,137.331c-0.234,0-0.47,0.01-0.707,0.029
					c-4.52,0.371-7.89,4.394-7.514,8.966c0.353,4.287,3.96,7.646,8.214,7.646c0.22,0,0.441-0.009,0.664-0.027
					c4.572-0.376,7.986-4.402,7.61-8.975C169.101,140.615,165.547,137.331,161.192,137.331z"/>
				<path fill="#FFFFFF" d="M161.186,109.366c18.693,0,34.593,14.452,36.151,33.409c1.643,19.962-13.234,37.398-33.197,39.04
					c-1.016,0.083-2.024,0.125-3.024,0.125c-18.635,0-34.393-14.228-35.998-33.125l0.682,8.288
					c1.082,16.707-12.146,25.853-26.226,27.011c-0.317,0.026-0.792,0.045-1.396,0.045c-3.983,0-13.53-0.826-19.763-5.878
					c2.124-2.505,6.373-7.514,12.64-15.117c1.335,1.133,3.203,1.868,6.058,1.868c0.492,0,1.013-0.022,1.565-0.067
					c4.918-0.405,8.329-3.792,7.893-9.096l-3.687-44.842l18.998-1.562l3.219,39.147c-1.583-19.92,13.164-37.485,33.092-39.123
					C159.198,109.407,160.194,109.366,161.186,109.366 M161.185,162.972c0.464,0,0.931-0.019,1.401-0.058
					c9.547-0.785,16.619-9.23,15.842-18.682c-0.745-9.062-8.305-15.902-17.236-15.902c-0.478,0-0.96,0.02-1.445,0.06
					c-9.451,0.777-16.531,9.125-15.746,18.673C144.74,156.044,152.322,162.972,161.185,162.972 M161.186,91.366
					c-1.482,0-2.985,0.062-4.468,0.184c-7.631,0.627-14.77,2.826-21.124,6.252c-3.325-3.904-8.27-6.338-13.692-6.338
					c-0.495,0-0.993,0.02-1.495,0.062l-18.998,1.562c-4.758,0.391-9.165,2.656-12.253,6.297c-3.087,3.641-4.603,8.359-4.211,13.117
					l2.712,32.986c-4.097,0.788-7.814,2.979-10.492,6.227c-6.143,7.452-10.392,12.463-12.433,14.871l-0.046,0.055
					c-3.132,3.694-4.644,8.494-4.193,13.316c0.45,4.822,2.825,9.259,6.587,12.309c11.018,8.93,25.417,9.895,31.097,9.895
					c1.053,0,2.018-0.036,2.87-0.105c11.627-0.957,21.623-5.271,29.024-11.902c9.056,6.351,19.853,9.788,31.044,9.788
					c1.493,0,3.007-0.062,4.5-0.185c14.44-1.187,27.556-7.907,36.932-18.922c9.398-11.04,13.918-25.08,12.729-39.533
					c-1.123-13.66-7.304-26.299-17.406-35.587C187.81,96.461,174.781,91.366,161.186,91.366L161.186,91.366z"/>
			</g>
			<g>
				<path fill="#FFFFFF" d="M286.573,180.624c-23.696-0.001-43.032-17.837-44.977-41.487c-0.991-12.05,2.747-23.775,10.525-33.017
					c7.805-9.272,18.741-14.925,30.792-15.916c1.238-0.102,2.493-0.153,3.73-0.153c23.381,0,43.201,18.305,45.123,41.672
					c2.041,24.833-16.544,46.7-41.43,48.747c-1.25,0.103-2.515,0.155-3.761,0.155C286.575,180.624,286.574,180.624,286.573,180.624z
					 M286.651,127.015c-0.234,0-0.47,0.01-0.707,0.029c-2.174,0.179-4.153,1.203-5.574,2.886c-1.434,1.697-2.123,3.856-1.94,6.08
					c0.352,4.289,3.961,7.647,8.215,7.647c0.219,0,0.44-0.009,0.663-0.027c2.203-0.181,4.211-1.222,5.654-2.929
					c1.441-1.706,2.136-3.854,1.955-6.046C294.559,130.299,291.005,127.015,286.651,127.015z"/>
				<path fill="#FFFFFF" d="M286.644,99.05c18.693,0,34.594,14.452,36.153,33.41c1.641,19.961-13.236,37.397-33.198,39.039
					c-1.016,0.083-2.023,0.125-3.025,0.125c-18.668,0-34.449-14.279-36.007-33.225c-1.642-19.962,13.123-37.584,33.085-39.225
					C284.657,99.091,285.653,99.05,286.644,99.05 M286.645,152.656c0.463,0,0.93-0.019,1.4-0.058
					c9.547-0.785,16.619-9.231,15.842-18.683c-0.745-9.062-8.305-15.901-17.236-15.901c-0.478,0-0.96,0.02-1.445,0.06
					c-9.451,0.777-16.531,9.126-15.746,18.673C270.198,145.729,277.782,152.656,286.645,152.656 M286.644,81.05
					c-1.483,0-2.986,0.062-4.468,0.184c-14.459,1.188-27.578,7.968-36.939,19.09c-9.318,11.07-13.796,25.116-12.609,39.549
					c1.123,13.659,7.288,26.269,17.359,35.507c10.013,9.185,23.007,14.243,36.587,14.243c1.493,0,3.007-0.062,4.5-0.185
					c29.831-2.453,52.109-28.675,49.662-58.453c-1.124-13.662-7.306-26.301-17.408-35.59C313.268,86.145,300.24,81.05,286.644,81.05
					L286.644,81.05z"/>
			</g>
			<g>
				<path fill="#FFFFFF" d="M188.578,185.796c-2.8,0-5.459-1.307-7.168-3.56c-1.859-2.45-2.338-5.681-1.271-8.565l27.806-75.102
					c1.214-3.279,4.217-5.558,7.702-5.845l8.583-0.706c0.248-0.02,0.495-0.03,0.74-0.03c3.201,0,6.186,1.706,7.8,4.513
					l39.988,69.527c1.536,2.671,1.599,5.942,0.167,8.67s-4.161,4.534-7.231,4.787l-18.997,1.562c-0.247,0.02-0.494,0.03-0.74,0.03
					c-3.204,0-6.19-1.709-7.804-4.521l-2.368-4.127l-18.156,1.493l-1.592,4.384c-1.201,3.305-4.216,5.608-7.721,5.897l-18.998,1.563
					C189.07,185.786,188.823,185.796,188.578,185.796z"/>
				<path fill="#FFFFFF" d="M224.968,100.988l39.988,69.527l-18.997,1.562l-5.214-9.086l-29.605,2.435l-3.563,9.808l-18.998,1.563
					l27.806-75.102L224.968,100.988 M217.249,148.808l14.755-1.214l-8.638-15.309L217.249,148.808 M224.972,82.988
					c-0.491,0-0.985,0.02-1.48,0.061l-8.583,0.706c-6.97,0.573-12.976,5.131-15.404,11.689l-27.806,75.102
					c-2.136,5.769-1.178,12.229,2.541,17.13c3.419,4.505,8.737,7.119,14.336,7.119c0.491,0,0.983-0.02,1.478-0.061l18.998-1.563
					c6.634-0.545,12.393-4.702,15.026-10.75l6.774-0.557c3.32,5.127,9.016,8.212,15.102,8.212c0.491,0,0.984-0.02,1.479-0.061
					l18.997-1.562c6.142-0.505,11.598-4.117,14.462-9.573c2.864-5.456,2.738-11.999-0.334-17.34l-39.988-69.527
					C237.343,86.401,231.373,82.988,224.972,82.988L224.972,82.988z"/>
			</g>
			<g>
				<path fill="#FFFFFF" d="M206.977,110.891c-0.728,0-1.458-0.088-2.177-0.268l-3.585-0.894c-4.43-1.104-7.331-5.351-6.749-9.879
					l0.22-1.71c2.104-16.5,13.389-17.783,16.797-17.783c1.529,0,3.125,0.205,4.742,0.608c2.429,0.605,4.699,1.586,6.421,2.351
					c0.638-0.973,1.465-1.823,2.446-2.494c1.51-1.032,3.284-1.57,5.08-1.57c0.727,0,1.458,0.088,2.176,0.268l3.322,0.828
					c4.486,1.119,7.396,5.455,6.729,10.03c-0.625,4.289-2.864,9.902-6.347,13.353c-0.138,0.157-0.282,0.311-0.432,0.46
					c-2.696,2.679-6.194,4.095-10.115,4.095c-1.486,0-3.035-0.211-4.605-0.626c-1.852-0.468-3.692-1.122-5.731-2.041
					c-0.673,1.479-1.741,2.765-3.11,3.702C210.548,110.353,208.774,110.891,206.977,110.891z"/>
				<path fill="#FFFFFF" d="M230.172,88.251l3.322,0.828c-0.837,5.75-4.198,8.801-4.279,8.801c-0.007,0,0.012-0.025,0.062-0.075
					c-0.959,0.954-2.207,1.479-3.771,1.479c-0.716,0-1.498-0.11-2.349-0.339c-1.761-0.439-3.357-1.089-4.881-1.805
					c-1.588-0.73-3.056-1.35-4.619-1.74c-0.701-0.175-1.351-0.265-1.947-0.265c-2.509,0-4.075,1.603-4.546,5.289l-0.187,1.467
					l-3.585-0.894l0.22-1.71c0.741-5.814,3.056-9.931,7.871-9.93c0.787,0,1.641,0.11,2.565,0.34c1.761,0.439,3.543,1.22,5.262,1.984
					c1.717,0.765,3.435,1.529,5.195,1.968c0.437,0.109,0.915,0.188,1.403,0.188C227.681,93.837,229.592,92.786,230.172,88.251
					 M230.172,70.251c-3.301,0-6.563,0.909-9.414,2.658c-0.756-0.245-1.543-0.475-2.355-0.678c-2.329-0.58-4.656-0.875-6.918-0.875
					c-10.36-0.001-23.313,6.717-25.728,25.653l-0.218,1.692c-1.164,9.057,4.638,17.55,13.498,19.759l3.585,0.894
					c1.438,0.358,2.9,0.535,4.355,0.535c3.594,0,7.142-1.077,10.164-3.144c0.267-0.182,0.527-0.371,0.782-0.566
					c0.241,0.066,0.482,0.129,0.725,0.191c2.304,0.606,4.611,0.914,6.858,0.914c5.574,0,10.819-1.89,14.977-5.36
					c6.356-4.986,9.869-13.695,10.823-20.25c1.333-9.151-4.485-17.824-13.458-20.06l-3.322-0.828
					C233.088,70.428,231.626,70.251,230.172,70.251L230.172,70.251z"/>
			</g>
		</g>
		<g>
			<g>
				<g>
					<path fill="#7A5039" d="M68.344,118.469l27.805-75.102l8.583-0.706l39.989,69.527l-18.998,1.563l-5.213-9.086l-29.605,2.434
						l-3.563,9.808L68.344,118.469z M97.014,90.48l14.754-1.213l-8.637-15.309L97.014,90.48z"/>
				</g>
			</g>
			<path fill="#7A5039" d="M73.413,61.839C71.111,50.936,59.459,43.446,48,44.389c-12.429,1.022-23.079,11.933-22.061,24.316
				c1.019,12.388,13.868,15.509,25.729,20.292c2.799,1.129,7.49,1.867,7.737,4.867c0.247,3-4.611,5.885-7.622,6.132
				c-3.01,0.248-7.985-1.779-8.24-4.875c0,0-0.361,0.037-16.5,4.5c2.619,11.07,14.748,18.343,26.141,17.407
				c12.428-1.022,23.965-11.909,22.947-24.293c-0.438-5.323-2.582-10.018-6.008-13.633c-4.507-4.89-12.717-5.604-19.848-7.04
				c-2.96-0.595-6.903-1.842-7.149-4.842c-0.247-2.999,3.24-5.843,6.25-6.091s7.307,1.932,7.553,4.931
				C56.93,66.061,57.124,66.204,73.413,61.839z"/>
			<path fill="#7A5039" d="M110.553,30.176c-0.74,5.785-3.645,5.901-5.666,5.398c-1.759-0.439-3.478-1.204-5.195-1.967
				c-1.718-0.765-3.501-1.545-5.261-1.984c-6.583-1.641-9.574,2.826-10.438,9.59l-0.218,1.709l3.584,0.895l0.188-1.467
				c0.583-4.563,2.842-5.933,6.492-5.024c1.564,0.39,3.032,1.009,4.619,1.74c1.523,0.715,3.12,1.366,4.881,1.805
				c2.711,0.731,4.722,0.25,6.12-1.139c-0.607,0.603,3.304-2.458,4.217-8.727L110.553,30.176z"/>
			<g>
				<g>
					<path fill="#7A5039" d="M159.896,35.115c19.962-1.641,37.503,13.324,39.145,33.287c1.642,19.962-13.235,37.398-33.197,39.04
						c-19.962,1.642-37.391-13.139-39.033-33.101S139.933,36.757,159.896,35.115z M161.45,54.017
						c-9.451,0.777-16.531,9.126-15.746,18.673c0.777,9.451,9.134,16.627,18.585,15.851c9.547-0.785,16.619-9.23,15.842-18.681
						C179.346,60.313,170.997,53.232,161.45,54.017z"/>
				</g>
			</g>
			<g>
				<g>
					<path fill="#7A5039" d="M158.193,109.755c19.962-1.642,37.503,13.323,39.144,33.286c1.643,19.962-13.234,37.398-33.197,39.04
						c-19.962,1.642-37.391-13.139-39.032-33.101C123.466,129.018,138.231,111.396,158.193,109.755z M159.747,128.656
						c-9.451,0.777-16.531,9.126-15.746,18.673c0.777,9.451,9.134,16.628,18.585,15.851c9.547-0.785,16.619-9.23,15.842-18.682
						C177.644,134.951,169.294,127.871,159.747,128.656z"/>
					<path fill="#7A5039" d="M283.651,99.173c19.962-1.642,37.504,13.323,39.146,33.287c1.641,19.961-13.236,37.397-33.198,39.039
						s-37.391-13.139-39.032-33.101C248.925,118.436,263.689,100.814,283.651,99.173z M285.206,118.074
						c-9.451,0.777-16.531,9.126-15.746,18.673c0.776,9.451,9.134,16.628,18.585,15.852c9.547-0.785,16.619-9.231,15.842-18.683
						C303.102,124.37,294.753,117.289,285.206,118.074z"/>
				</g>
			</g>
			<g>
				<g>
					<path fill="#7A5039" d="M125.799,157.369c1.082,16.707-12.146,25.853-26.226,27.011c-2.411,0.198-13.981-0.015-21.159-5.833
						c2.124-2.505,6.373-7.514,12.64-15.117c1.565,1.328,3.863,2.109,7.624,1.801c4.918-0.405,8.329-3.792,7.893-9.096
						l-3.687-44.842l18.998-1.562L125.799,157.369z"/>
					<path fill="#7A5039" d="M188.579,177.062l27.806-75.102l8.583-0.706l39.988,69.527l-18.997,1.563l-5.214-9.086l-29.605,2.434
						l-3.563,9.808L188.579,177.062z M217.249,149.073l14.755-1.214l-8.638-15.309L217.249,149.073z"/>
				</g>
			</g>
			<g>
				<path fill="#7A5039" d="M230.172,88.251c-0.74,5.785-3.646,5.901-5.666,5.397c-1.761-0.438-3.479-1.203-5.195-1.968
					c-1.719-0.764-3.501-1.545-5.262-1.984c-6.582-1.641-9.574,2.826-10.437,9.59l-0.22,1.71l3.585,0.894l0.187-1.467
					c0.583-4.563,2.844-5.933,6.493-5.024c1.563,0.39,3.031,1.01,4.619,1.74c1.523,0.716,3.12,1.366,4.881,1.805
					c2.711,0.731,4.722,0.25,6.12-1.14c-0.607,0.603,3.304-2.458,4.217-8.727L230.172,88.251z"/>
			</g>
		</g>
		<polygon fill="#998675" points="272.618,241.103 317.394,232.511 274.219,209.516 		"/>
		<polygon opacity="0.15" fill="#FFFFFF" points="94.094,147.662 124.831,145.35 125.051,148.219 198.461,144.066 199.801,140.101 
			248.259,136.234 249.605,137.969 329.878,132.938 322.92,109.73 307.055,94.318 213.906,101.891 149.86,109.407 145.807,112.317 
			124.983,116.218 121.776,107.96 101.538,109.366 96.708,129.217 		"/>
		<path fill="#C7B299" d="M21.439,242.092l15.814-58.198c0,0,35.892,3.702,110.58-5.51c76.17-9.395,111.108-11.521,148.063-9.55
			c8.25,0.518,12.811,2.212,12.811,2.212l8.687,61.465c0,0-13.514-4.898-45.163-3.302c-46.275,2.333-139.376,10.912-176.989,12.977
			C51.05,244.391,21.439,242.092,21.439,242.092z"/>
		<g>
			<g>
				<path fill="none" stroke="#FFFFFF" stroke-width="0.5389" stroke-miterlimit="10" d="M37.004,187.477
					c0,0,0.712,0.073,2.144,0.174"/>
				<path fill="none" stroke="#FFFFFF" stroke-width="0.5389" stroke-miterlimit="10" stroke-dasharray="4.3251,2.1625" d="
					M41.303,187.786c11.546,0.653,46.476,1.558,106.282-5.818c76.17-9.396,111.108-11.521,148.063-9.55
					c4.249,0.267,7.519,0.845,9.691,1.343"/>
				<path fill="none" stroke="#FFFFFF" stroke-width="0.5389" stroke-miterlimit="10" d="M306.394,174.018
					c1.358,0.349,2.064,0.611,2.064,0.611"/>
			</g>
		</g>
		<g>
			<g>
				<path fill="none" stroke="#FFFFFF" stroke-width="0.5389" stroke-miterlimit="10" d="M316.519,227.552
					c0,0-0.656-0.261-2.053-0.643"/>
				<path fill="none" stroke="#FFFFFF" stroke-width="0.5389" stroke-miterlimit="10" stroke-dasharray="4.2659,2.1329" d="
					M312.399,226.396c-5.894-1.337-18.453-3.225-39.846-2.146c-46.275,2.334-139.375,10.912-176.988,12.977
					c-35.487,1.771-60.797,0.638-69.392,0.122"/>
				<path fill="none" stroke="#FFFFFF" stroke-width="0.5389" stroke-miterlimit="10" d="M25.11,237.283
					c-1.413-0.091-2.146-0.15-2.146-0.15"/>
			</g>
		</g>
		<path fill="#283625" d="M282.355,92.118c0,0,1.318,4.862-2.413,8.218c-3.731,3.356-5.587,2.531-5.587,2.531
			s-2.213-3.956,0.993-7.631C278.555,91.562,282.355,92.118,282.355,92.118z"/>
		<path fill="#006F8D" d="M316.755,112.817c-0.7-1-0.55-1.7-0.55-1.7s-4.101,1.9-5.2,1.05s-2.851-5.703-3.4-7.526
			c-0.55-1.824-2.3-4.024-3.699-4.024c-1.4,0-5.95,4.25-10.55,3.45c-4.601-0.8-8.851-9-8.851-9s-0.69-2.159-3.184-2.961
			c-0.931,0.063-2.382,0.341-3.908,1.327c-0.073,0.047,2.417-0.115,3.917,2.835c1.5,2.95,5.313,10.85,10.263,11.45
			s7.931-0.75,9.98-1.95c2.051-1.2,2.341-2.05,2.941,0.05c0.6,2.1,2.745,10,6.995,9.95s6.497-1.7,6.497-1.7
			S317.455,113.817,316.755,112.817z"/>
		<g>
			<path fill="#D9E021" d="M301.155,134.018c0-1.05,0.899-1.75,0.899-1.75s-3.8,1.3-5-0.101c-1.2-1.399-3.042-4.35-0.971-11.75
				s2.821-7.75,2.571-10s-1.75-3.45-4.05-3.7c-2.301-0.25-8.351-2.65-11.351-5.6c-2.331-2.292-5.446-5.61-6.156-7.469
				c-0.585,0.414-1.177,0.931-1.75,1.588c-0.214,0.245-0.401,0.492-0.568,0.738c0.422,1.147,1.26,2.708,2.925,4.493
				c3.5,3.75,7.45,6.45,9.4,7.55s6.55,2.1,6.55,2.1s2.149-0.35,1.3,2.25s-3.2,8.5-3.1,13.3c0.1,4.8,1,7.799,3.949,9.9
				c2.95,2.1,7.75-0.05,7.75,0S301.155,135.067,301.155,134.018z"/>
		</g>
		<g>
			<path fill="#F7931E" d="M289.555,138.567c-0.1-1.15,0.101-9.45-0.05-11.6c-0.149-2.15-0.399-3.975-2.699-4.087
				c-2.301-0.112-3.851-0.912-3.301-2.662c0.551-1.75,3.295-7.19,3.101-9.9s-1.9-5.458-3.9-6.529
				c-1.807-0.967-7.515-2.367-8.939-5.466c-0.396,1.835,0.1,3.417,0.398,4.134c1.209,0.865,3.775,2.604,5.979,3.449
				c3,1.15,2.956,5.656,2.956,5.656s0.003,3.353-1.646,6.753c-1.65,3.4,0.702,5.451,0.702,5.451s1.449,0.351,3.349,0.301
				c1.9-0.05,2.05,1.601,2.05,2.401c0,0.8,0,4.45,0,4.45s-1.573,6.7-1.573,8.15s0.688,4.75,0.688,4.75l1.269-2.3
				c0,0,0.51-1.25,1.359-0.351C290.146,142.067,289.655,139.717,289.555,138.567z"/>
		</g>
		<path fill="#C61A1D" d="M274.001,97.484l-52.295-41.866l-14.399,23.1c0,0,57.299,21.149,67.049,24.149
			C274.355,102.868,272.956,100.361,274.001,97.484z"/>
		<path fill="#FFB901" d="M275.349,95.237c0.604-0.692,1.229-1.233,1.845-1.657c-4.525-7.949-34.638-59.411-34.638-59.411
			l-20.85,21.45l52.295,41.866C274.27,96.748,274.694,95.986,275.349,95.237z"/>
		<path fill="#003E0D" d="M282.355,92.118l-17.975-74.299l-21.825,16.35c0,0,30.112,51.461,34.638,59.411
			C279.852,91.751,282.355,92.118,282.355,92.118z"/>
		<path fill="#FF335C" d="M191.856,3.719c0,0-2.85,3.3-1.05,10.2s16.5,64.799,16.5,64.799l14.399-23.1L191.856,3.719z"/>
		<path fill="#FFD900" d="M191.856,3.719c0,0,1.69-1.874,3-2.7c9.3,8.55,47.699,33.149,47.699,33.149l-20.85,21.45L191.856,3.719z"
			/>
		<path fill="#00975E" d="M198.081,0.044c-1.35-0.01-2.418,0.45-3.225,0.975c9.3,8.55,47.699,33.149,47.699,33.149l21.825-16.35
			c0,0-32.455-10.718-61.061-17.388C201.396,0.192,199.635,0.056,198.081,0.044z"/>
		<g>
			<path fill="#42210B" d="M193.328,192.383c-2.148,0.229-3.596,1.416-3.314,4.047c-3.169,0.339-5.048,0.54-8.162,0.873
				c-0.974-8.097,4.078-12.656,10.719-13.528c10.764-1.423,16.632,8.758,11.972,17.999l-6.446,11.334l11.169-1.193
				c0.35,3.275,0.568,5.315,0.918,8.591l-26.418,2.824l-0.154-1.45l11.911-22.182C197.131,196.973,198.053,191.877,193.328,192.383z
				"/>
			<path fill="#42210B" d="M242.172,192.623c0.278,4.202,0.596,8.998,0.874,13.2c0.546,8.244-5.499,13.407-13.312,13.924
				c-7.651,0.507-14.377-3.811-14.923-12.055c-0.278-4.203-0.596-8.998-0.874-13.201c-0.545-8.244,5.553-13.41,13.204-13.917
				C234.954,180.058,241.626,184.379,242.172,192.623z M233.926,206.211c-0.268-4.041-0.578-8.729-0.85-12.824
				c-0.195-2.964-2.508-4.38-5.363-4.191c-2.748,0.183-4.801,1.888-4.604,4.852c0.271,4.095,0.581,8.782,0.849,12.824
				c0.203,3.07,2.462,4.49,5.21,4.309C232.023,210.991,234.129,209.282,233.926,206.211z"/>
			<path fill="#42210B" d="M248.95,187.972l-0.091-7.83l14.525-0.167l0.345,29.914l5.724-0.066l0.091,7.884l-20.734,0.239
				l-0.091-7.884l5.615-0.064l-0.255-22.085L248.95,187.972z"/>
			<path fill="#42210B" d="M287.022,218.882c-15.377-0.611-17.936-16.439-8.667-22.556c-5.266-6.208-1.541-16.976,10.222-16.508
				s14.562,11.604,8.876,17.321C306.096,204.023,302.292,219.489,287.022,218.882z M287.721,201.347
				c-6.475-0.258-6.849,9.13-0.374,9.388C293.875,210.994,294.249,201.606,287.721,201.347z M288.274,187.426
				c-4.694-0.187-4.935,5.856-0.24,6.043C292.674,193.653,292.914,187.61,288.274,187.426z"/>
		</g>
		<polygon opacity="0.15" fill="#FFFFFF" points="22.664,82.96 74.156,79.839 77.908,82.415 126.007,77.213 125.904,73.988 
			203.393,67.027 186.338,26.012 124.983,33.569 113.028,41.414 78.414,45.119 67.597,40.619 37.004,36.73 14.899,56.624 		"/>
		<g>
			<g>
				<g>
					<path fill="#FFFFFF" d="M104.934,208.679c-0.687,0.374-1.641,0.739-2.872,1.09c-1.134,0.297-1.704,0.448-1.704,0.448
						c-0.88,0.285-1.516,0.631-1.901,1.047c-0.322,0.564-0.477,1.119-0.455,1.668c0.031,0.743,0.286,1.333,0.751,1.76
						c0.46,0.382,1.119,0.555,1.968,0.519c1.388-0.058,2.466-0.505,3.229-1.335c0.763-0.83,1.119-1.94,1.062-3.328L104.934,208.679
						L104.934,208.679z M106.508,217.809c-1.024,0.59-2.118,0.975-3.276,1.144c-1.167,0.177-2.197,0.283-3.094,0.32
						c-1.789,0.075-3.376-0.351-4.761-1.264c-1.383-0.911-2.121-2.487-2.214-4.731c-0.087-2.089,0.458-3.604,1.641-4.554
						c1.182-0.948,2.71-1.604,4.589-1.981c0.248-0.01,0.545-0.062,0.892-0.151c0.347-0.087,0.74-0.167,1.184-0.235
						c2.18-0.392,3.247-1.079,3.206-2.078c-0.031-0.745-0.44-1.215-1.22-1.405c-0.781-0.189-1.49-0.277-2.142-0.25
						c-0.694,0.028-1.314,0.158-1.853,0.379c-0.541,0.22-0.918,0.612-1.144,1.17l-4.999,0.208c0.131-1.558,0.775-2.854,1.93-3.896
						c1.296-1.202,3.189-1.855,5.671-1.959c2.79-0.116,4.899,0.274,6.333,1.16c1.482,0.935,2.259,2.298,2.334,4.087l0.283,6.795
						c0.083,1.987-0.21,3.557-0.889,4.708C108.307,216.426,107.479,217.27,106.508,217.809z"/>
					<path fill="#FFFFFF" d="M86.11,193.762l2.688-0.111c0.7-0.029,1.302,0.195,1.821,0.671c0.523,0.476,0.795,1.063,0.824,1.759
						l0.065,1.567l-5.227,0.218L86.11,193.762z"/>
					<path fill="#FFFFFF" d="M86.665,199.57l2.688-0.111c0.699-0.029,1.302,0.194,1.82,0.674c0.523,0.473,0.796,1.063,0.825,1.755
						l0.721,17.315l-5.229,0.218L86.665,199.57z"/>
					<path fill="#FFFFFF" d="M82.546,213.497l3.733-0.155c-0.461,2.111-1.439,3.747-2.935,4.907c-1.493,1.21-3.414,1.864-5.75,1.962
						c-2.84,0.118-5.086-0.713-6.757-2.489c-1.667-1.722-2.571-4.256-2.709-7.588c-0.132-3.184,0.535-5.705,2-7.56
						c1.517-1.906,3.695-2.922,6.529-3.04c2.985-0.124,5.335,0.679,7.054,2.399c1.67,1.774,2.573,4.306,2.709,7.588l0.022,0.521
						l0.012,0.301c0.01,0.249-0.009,0.426-0.056,0.522l-12.909,0.538c0.115,1.546,0.53,2.669,1.263,3.387
						c0.677,0.769,1.661,1.131,2.96,1.076c0.842-0.034,1.56-0.238,2.137-0.612c0.151-0.057,0.281-0.151,0.402-0.278
						c0.117-0.133,0.252-0.271,0.391-0.431c0.044-0.148,0.222-0.354,0.536-0.613C81.496,213.67,81.95,213.522,82.546,213.497
						L82.546,213.497z M73.351,208.048l7.611-0.316c-0.159-1.34-0.543-2.318-1.17-2.943c-0.681-0.667-1.612-0.978-2.808-0.928
						c-1.089,0.046-1.973,0.432-2.638,1.154C73.674,205.744,73.348,206.754,73.351,208.048z"/>
					<path fill="#FFFFFF" d="M54.082,220.812l-0.957-22.982c-0.032-0.752,0.204-1.394,0.705-1.938c0.5-0.542,1.125-0.832,1.87-0.863
						l2.614-0.108l0.87,20.897l9.66-0.402l0.199,4.775L54.082,220.812z"/>
				</g>
				<path fill="#FFFFFF" d="M140.142,205.851c-0.675,0.394-1.617,0.787-2.837,1.173c-1.126,0.33-1.691,0.497-1.691,0.497
					c-0.873,0.312-1.499,0.676-1.872,1.104c-0.304,0.572-0.443,1.132-0.404,1.679c0.053,0.743,0.326,1.324,0.8,1.737
					c0.474,0.369,1.138,0.522,1.982,0.462c1.387-0.098,2.454-0.576,3.191-1.429c0.737-0.852,1.061-1.972,0.963-3.357
					L140.142,205.851L140.142,205.851z M141.979,214.931c-1.004,0.62-2.086,1.036-3.242,1.239c-1.161,0.21-2.187,0.346-3.083,0.41
					c-1.788,0.126-3.386-0.252-4.794-1.126c-1.412-0.87-2.195-2.424-2.353-4.665c-0.147-2.085,0.353-3.614,1.511-4.6
					c1.149-0.981,2.66-1.681,4.527-2.113c0.25-0.018,0.545-0.078,0.888-0.177c0.346-0.097,0.734-0.188,1.175-0.27
					c2.167-0.455,3.215-1.174,3.145-2.171c-0.053-0.744-0.474-1.202-1.26-1.37c-0.785-0.166-1.498-0.233-2.148-0.187
					c-0.691,0.049-1.308,0.195-1.84,0.433c-0.532,0.235-0.901,0.639-1.111,1.202l-4.991,0.354c0.088-1.561,0.691-2.874,1.817-3.949
					c1.26-1.24,3.134-1.948,5.613-2.124c2.784-0.197,4.904,0.133,6.362,0.977c1.509,0.89,2.323,2.231,2.449,4.017l0.48,6.783
					c0.141,1.985-0.104,3.563-0.75,4.732C143.737,213.497,142.935,214.364,141.979,214.931z"/>
				<path fill="#FFFFFF" d="M111.002,208.285l5.144-0.364l0.222,3.128c0.063,0.896,0.36,1.572,0.891,2.039
					c0.528,0.411,1.313,0.58,2.357,0.506c1.043-0.073,1.792-0.402,2.249-0.984c0.368-0.524,0.489-1.606,0.373-3.248l-1.076-15.194
					c-0.053-0.75,0.175-1.399,0.686-1.961c0.511-0.559,1.14-0.867,1.884-0.92l2.529-0.179l1.281,18.104
					c0.117,1.64,0.125,2.841,0.033,3.595c-0.189,0.864-0.466,1.554-0.826,2.077c-0.64,0.896-1.508,1.609-2.623,2.135
					c-1.262,0.488-2.64,0.788-4.129,0.894c-1.589,0.112-2.894,0.002-3.919-0.324c-1.061-0.173-2.016-0.656-2.87-1.445
					c-0.698-0.645-1.165-1.316-1.412-1.994c-0.31-0.88-0.53-2.162-0.649-3.847L111.002,208.285z"/>
			</g>
			<path fill="#505457" d="M65.675,226.376c0.448-0.098,0.984-0.179,1.574-0.212c1.068-0.061,1.842,0.144,2.373,0.559
				c0.546,0.425,0.883,1.05,0.933,1.95c0.052,0.906-0.206,1.666-0.708,2.206c-0.519,0.55-1.391,0.88-2.511,0.943
				c-0.538,0.03-0.975,0.032-1.352,0.011L65.675,226.376z M66.696,231.247c0.188,0.014,0.464,0.007,0.753-0.01
				c1.599-0.09,2.404-0.995,2.319-2.495c-0.066-1.312-0.881-2.1-2.453-2.01c-0.384,0.021-0.675,0.069-0.868,0.121L66.696,231.247z"
				/>
			<path fill="#505457" d="M76.439,228.414c0.107,1.903-1.039,2.994-2.511,3.077c-1.529,0.087-2.653-0.999-2.748-2.681
				c-0.1-1.764,0.962-2.98,2.5-3.067C75.264,225.653,76.346,226.758,76.439,228.414z M71.966,228.75
				c0.068,1.195,0.794,2.22,1.974,2.153c1.179-0.066,1.786-1.15,1.715-2.411c-0.063-1.113-0.727-2.233-1.965-2.163
				C72.449,226.399,71.897,227.537,71.966,228.75z"/>
			<path fill="#505457" d="M84.177,231.64c-0.79-0.155-1.562-0.333-2.242-0.518c-0.131-0.035-0.244-0.069-0.354-0.063
				c-1.38,0.028-2.596-0.879-2.698-2.676c-0.101-1.779,0.955-2.988,2.51-3.075c1.571-0.09,2.656,1.023,2.749,2.662
				c0.081,1.435-0.551,2.381-1.491,2.766l0.002,0.032c0.579,0.107,1.211,0.203,1.704,0.26L84.177,231.64z M83.356,228.057
				c-0.063-1.122-0.727-2.233-1.949-2.164c-1.256,0.071-1.809,1.227-1.741,2.43c0.067,1.188,0.795,2.212,1.974,2.146
				C82.821,230.4,83.428,229.317,83.356,228.057z"/>
			<path fill="#505457" d="M85.697,225.161l0.187,3.297c0.07,1.239,0.674,1.731,1.442,1.688c0.845-0.049,1.37-0.623,1.301-1.844
				l-0.187-3.297l0.753-0.042l0.184,3.248c0.096,1.706-0.797,2.451-2.043,2.521c-1.18,0.066-2.106-0.526-2.204-2.256l-0.186-3.273
				L85.697,225.161z"/>
			<path fill="#505457" d="M93.624,227.675l-2.229,0.126l0.113,2.002l2.495-0.141l0.034,0.603l-3.248,0.184l-0.314-5.557l3.12-0.177
				l0.034,0.601l-2.367,0.135l0.099,1.756l2.229-0.126L93.624,227.675z"/>
			<path fill="#505457" d="M97.773,230.053l-2.204-5.449l0.813-0.047l1.052,2.687c0.282,0.736,0.534,1.399,0.733,2.042l0.016-0.001
				c0.126-0.651,0.318-1.365,0.542-2.106l0.817-2.799l0.796-0.046l-1.747,5.674L97.773,230.053z"/>
			<path fill="#505457" d="M106.04,226.739c0.107,1.903-1.038,2.995-2.509,3.078c-1.53,0.087-2.656-1-2.751-2.681
				c-0.1-1.764,0.965-2.98,2.502-3.067C104.864,223.979,105.946,225.083,106.04,226.739z M101.565,227.076
				c0.068,1.195,0.795,2.22,1.973,2.152c1.183-0.066,1.79-1.15,1.719-2.41c-0.063-1.114-0.728-2.233-1.968-2.163
				C102.05,224.725,101.497,225.863,101.565,227.076z"/>
			<path fill="#505457" d="M111.174,229.122c-0.257,0.146-0.806,0.309-1.507,0.348c-1.623,0.092-2.893-0.827-2.996-2.658
				c-0.099-1.749,1.057-2.987,2.843-3.089c0.711-0.039,1.182,0.082,1.381,0.172l-0.154,0.595c-0.282-0.116-0.689-0.192-1.168-0.165
				c-1.35,0.076-2.2,0.96-2.117,2.419c0.078,1.368,0.938,2.187,2.331,2.107c0.463-0.026,0.917-0.143,1.209-0.299L111.174,229.122z"
				/>
			<path fill="#505457" d="M114.952,226.469l-2.232,0.126l0.114,2.002l2.496-0.142l0.034,0.603l-3.249,0.185l-0.314-5.558
				l3.122-0.177l0.034,0.602l-2.369,0.134l0.099,1.758l2.232-0.127L114.952,226.469z M113.57,222.344l0.95,0.89l-0.633,0.035
				l-0.569-0.538l-0.018,0.001l-0.514,0.6l-0.606,0.034l0.819-0.989L113.57,222.344z"/>
			<path fill="#505457" d="M117.766,223.266c0.355-0.08,0.822-0.164,1.42-0.206c0.733-0.052,1.285,0.073,1.646,0.345
				c0.326,0.244,0.55,0.633,0.585,1.127c0.035,0.502-0.09,0.909-0.361,1.217c-0.371,0.433-0.99,0.684-1.715,0.734
				c-0.222,0.016-0.427,0.022-0.601-0.008l0.158,2.226l-0.745,0.053L117.766,223.266z M118.699,225.891
				c0.166,0.028,0.37,0.032,0.618,0.015c0.897-0.063,1.415-0.53,1.362-1.28c-0.053-0.743-0.625-1.055-1.436-0.997
				c-0.325,0.022-0.57,0.063-0.696,0.104L118.699,225.891z"/>
			<path fill="#505457" d="M122.31,222.952c0.372-0.09,0.915-0.179,1.419-0.214c0.794-0.057,1.325,0.054,1.696,0.334
				c0.301,0.228,0.498,0.595,0.528,1.031c0.051,0.724-0.393,1.244-0.977,1.482l0.002,0.026c0.447,0.118,0.739,0.494,0.916,1.061
				c0.243,0.761,0.419,1.286,0.553,1.493l-0.767,0.054c-0.105-0.158-0.269-0.618-0.47-1.299c-0.226-0.755-0.563-1.021-1.238-0.998
				l-0.701,0.05l0.17,2.406l-0.744,0.053L122.31,222.952z M123.233,225.43l0.759-0.055c0.794-0.056,1.269-0.512,1.224-1.146
				c-0.05-0.715-0.611-0.99-1.397-0.935c-0.358,0.025-0.604,0.067-0.729,0.108L123.233,225.43z"/>
			<path fill="#505457" d="M130.081,225.293l-2.23,0.158l0.142,2.001l2.494-0.177l0.043,0.602l-3.245,0.229l-0.393-5.552
				l3.117-0.221l0.043,0.601l-2.367,0.167l0.125,1.756l2.229-0.157L130.081,225.293z"/>
			<path fill="#505457" d="M135.496,227.353c-0.256,0.149-0.8,0.319-1.501,0.369c-1.623,0.114-2.906-0.786-3.035-2.616
				c-0.124-1.747,1.015-3.002,2.798-3.128c0.71-0.051,1.182,0.064,1.385,0.151l-0.148,0.598c-0.282-0.112-0.69-0.183-1.167-0.149
				c-1.35,0.096-2.187,0.991-2.084,2.448c0.097,1.368,0.968,2.174,2.36,2.075c0.462-0.032,0.916-0.155,1.205-0.316L135.496,227.353z
				"/>
			<path fill="#505457" d="M136.797,221.854l0.393,5.552l-0.751,0.054l-0.393-5.552L136.797,221.854z"/>
			<g>
				<path fill="#505457" d="M56.958,227.4l-1.689,0.096l-0.035-0.61l4.113-0.232l0.035,0.61l-1.699,0.097l0.28,4.944l-0.726,0.041
					L56.958,227.4z"/>
				<path fill="#505457" d="M60.683,226.578l0.187,3.298c0.07,1.235,0.652,1.732,1.394,1.69c0.817-0.047,1.322-0.621,1.253-1.84
					l-0.187-3.299l0.724-0.04l0.184,3.247c0.096,1.706-0.762,2.45-1.964,2.52c-1.139,0.063-2.032-0.532-2.13-2.262l-0.186-3.273
					L60.683,226.578z"/>
			</g>
			<g>
				<path fill="#505457" d="M138.655,226.422c0.336,0.186,0.808,0.31,1.304,0.274c0.732-0.052,1.133-0.469,1.093-1.029
					c-0.036-0.512-0.354-0.794-1.124-1.022c-0.929-0.266-1.522-0.703-1.577-1.479c-0.062-0.865,0.61-1.559,1.689-1.635
					c0.557-0.039,0.988,0.064,1.236,0.187l-0.155,0.599c-0.181-0.094-0.562-0.225-1.063-0.189c-0.759,0.054-1.016,0.527-0.989,0.906
					c0.036,0.519,0.394,0.75,1.179,0.993c0.965,0.295,1.469,0.715,1.527,1.53c0.061,0.856-0.516,1.649-1.823,1.742
					c-0.537,0.038-1.133-0.083-1.444-0.26L138.655,226.422z"/>
				<path fill="#505457" d="M143.643,225.193l-0.454,1.786l-0.74,0.053l1.502-5.685l0.856-0.061l2.287,5.417l-0.766,0.054
					l-0.716-1.704L143.643,225.193z M145.432,224.502l-0.665-1.557c-0.149-0.354-0.255-0.679-0.359-0.992l-0.017,0.001
					c-0.06,0.325-0.118,0.677-0.209,1.024l-0.43,1.643L145.432,224.502z"/>
			</g>
			<path fill="#505457" d="M150.19,225.608c0.332,0.184,0.801,0.309,1.291,0.273c0.729-0.051,1.126-0.469,1.086-1.03
				c-0.036-0.508-0.352-0.792-1.116-1.021c-0.922-0.266-1.512-0.703-1.566-1.479c-0.061-0.865,0.604-1.558,1.675-1.634
				c0.555-0.039,0.981,0.063,1.228,0.188l-0.155,0.598c-0.178-0.095-0.557-0.225-1.057-0.189c-0.751,0.053-1.005,0.526-0.979,0.905
				c0.037,0.52,0.391,0.751,1.171,0.993c0.958,0.297,1.455,0.715,1.514,1.532c0.06,0.855-0.507,1.65-1.808,1.742
				c-0.53,0.038-1.122-0.087-1.431-0.264L150.19,225.608z"/>
			<path fill="#505457" d="M155.139,224.382l-0.45,1.786l-0.735,0.051l1.487-5.683l0.849-0.061l2.273,5.417l-0.761,0.055
				l-0.71-1.703L155.139,224.382z M156.911,223.693l-0.659-1.559c-0.149-0.354-0.254-0.678-0.357-0.993l-0.017,0.001
				c-0.059,0.327-0.117,0.677-0.207,1.025l-0.426,1.643L156.911,223.693z"/>
			<path fill="#505457" d="M158.985,220.368c0.307-0.097,0.802-0.181,1.292-0.216c0.71-0.05,1.177,0.041,1.531,0.297
				c0.301,0.193,0.505,0.512,0.536,0.948c0.038,0.544-0.288,1.036-0.845,1.284l0.001,0.024c0.532,0.087,1.174,0.479,1.233,1.304
				c0.033,0.477-0.129,0.861-0.395,1.145c-0.352,0.381-0.959,0.59-1.859,0.653c-0.489,0.035-0.868,0.029-1.108,0.012
				L158.985,220.368z M159.856,222.59l0.648-0.046c0.743-0.053,1.155-0.486,1.117-1.021c-0.046-0.643-0.547-0.87-1.264-0.819
				c-0.328,0.022-0.513,0.061-0.628,0.092L159.856,222.59z M160.043,225.242c0.151,0.016,0.348,0.01,0.6-0.009
				c0.736-0.052,1.395-0.372,1.338-1.177c-0.053-0.752-0.721-1.027-1.498-0.973l-0.589,0.042L160.043,225.242z"/>
			<path fill="#505457" d="M166.462,222.72l-2.132,0.151l0.142,2l2.385-0.168l0.042,0.6l-3.105,0.22l-0.393-5.55l2.982-0.211
				l0.042,0.602l-2.262,0.16l0.124,1.752l2.132-0.15L166.462,222.72z"/>
			<path fill="#505457" d="M167.437,219.762c0.355-0.092,0.875-0.178,1.356-0.212c0.759-0.054,1.267,0.061,1.625,0.342
				c0.288,0.226,0.478,0.594,0.509,1.03c0.051,0.726-0.371,1.242-0.93,1.481l0.001,0.024c0.428,0.119,0.709,0.496,0.88,1.063
				c0.235,0.762,0.404,1.289,0.532,1.494l-0.735,0.052c-0.101-0.158-0.259-0.618-0.452-1.3c-0.22-0.755-0.541-1.021-1.189-1.001
				l-0.671,0.048l0.17,2.404l-0.71,0.05L167.437,219.762z M168.326,222.239l0.728-0.052c0.761-0.054,1.213-0.507,1.168-1.143
				c-0.051-0.717-0.589-0.991-1.34-0.938c-0.343,0.024-0.578,0.064-0.699,0.106L168.326,222.239z"/>
			<g>
				<path fill="#2B2E31" d="M147.658,215.119l-0.082-1.154l1.144-0.081l0.082,1.154L147.658,215.119z"/>
				<path fill="#2B2E31" d="M154.265,212.454l0.999,0.057c-0.062,0.694-0.3,1.252-0.716,1.671c-0.418,0.42-0.951,0.651-1.597,0.697
					c-0.813,0.058-1.481-0.162-2.014-0.661c-0.531-0.501-0.833-1.247-0.904-2.246c-0.046-0.646,0.021-1.218,0.201-1.716
					c0.177-0.5,0.473-0.885,0.891-1.157c0.415-0.273,0.879-0.427,1.389-0.463c0.644-0.046,1.183,0.08,1.616,0.38
					c0.432,0.299,0.729,0.746,0.886,1.343l-0.966,0.221c-0.122-0.394-0.309-0.685-0.559-0.871c-0.25-0.186-0.544-0.267-0.878-0.243
					c-0.507,0.036-0.905,0.248-1.195,0.637c-0.291,0.387-0.409,0.976-0.353,1.769c0.057,0.804,0.251,1.374,0.582,1.719
					c0.33,0.342,0.742,0.495,1.234,0.46c0.393-0.027,0.713-0.173,0.962-0.438C154.088,213.351,154.229,212.963,154.265,212.454z"/>
				<path fill="#2B2E31" d="M155.683,211.55c-0.078-1.107,0.168-1.949,0.739-2.524c0.481-0.479,1.086-0.743,1.821-0.796
					c0.813-0.057,1.499,0.164,2.055,0.665c0.556,0.503,0.866,1.229,0.934,2.177c0.054,0.769-0.017,1.381-0.215,1.838
					c-0.196,0.458-0.507,0.823-0.926,1.098c-0.42,0.275-0.891,0.43-1.405,0.466c-0.833,0.06-1.521-0.16-2.07-0.66
					C156.063,213.312,155.754,212.557,155.683,211.55z M156.716,211.477c0.054,0.765,0.26,1.326,0.619,1.684
					c0.357,0.357,0.789,0.518,1.292,0.482c0.498-0.035,0.9-0.256,1.204-0.663c0.304-0.405,0.428-1,0.373-1.785
					c-0.052-0.738-0.259-1.286-0.618-1.644c-0.361-0.357-0.786-0.519-1.281-0.483c-0.503,0.036-0.907,0.255-1.211,0.656
					C156.787,210.128,156.662,210.71,156.716,211.477z"/>
				<path fill="#2B2E31" d="M162.626,214.06l-0.423-5.974l0.9-0.063l0.059,0.839c0.164-0.308,0.396-0.56,0.69-0.761
					c0.298-0.199,0.645-0.313,1.039-0.341c0.439-0.031,0.806,0.035,1.1,0.198c0.293,0.165,0.508,0.408,0.648,0.73
					c0.421-0.732,1.006-1.124,1.758-1.178c0.588-0.041,1.051,0.091,1.392,0.396c0.339,0.306,0.532,0.802,0.581,1.483l0.29,4.1
					l-0.998,0.071l-0.267-3.765c-0.029-0.404-0.082-0.694-0.161-0.865c-0.076-0.175-0.207-0.31-0.384-0.406
					c-0.178-0.097-0.384-0.136-0.616-0.12c-0.416,0.029-0.753,0.193-1.007,0.491c-0.257,0.3-0.361,0.757-0.317,1.372l0.246,3.471
					l-1.005,0.07l-0.275-3.88c-0.032-0.452-0.14-0.782-0.317-0.997c-0.181-0.214-0.457-0.306-0.829-0.279
					c-0.282,0.021-0.539,0.113-0.769,0.279c-0.228,0.169-0.386,0.399-0.474,0.695c-0.088,0.297-0.113,0.717-0.074,1.262l0.219,3.099
					L162.626,214.06z"/>
			</g>
		</g>
	</g>
</g>
</svg>
